<?xml version="1.0" standalone="no"?>
<!DOCTYPE svg PUBLIC "-//W3C//DTD SVG 1.1//EN" "http://www.w3.org/Graphics/SVG/1.1/DTD/svg11.dtd" >
<svg xmlns="http://www.w3.org/2000/svg">
<metadata>
This is a custom SVG webfont generated by Font Squirrel.
Copyright   : Modified Present Black Condensed
Foundry     : Modified Present Black Condensed
</metadata>
<defs>
<font id="L5RTitles_NewRegular" horiz-adv-x="454" >
<font-face units-per-em="2048" ascent="1599" descent="-449" />
<missing-glyph horiz-adv-x="530" />
<glyph unicode=" "  horiz-adv-x="530" />
<glyph unicode="&#x09;" horiz-adv-x="530" />
<glyph unicode="&#xa0;" horiz-adv-x="530" />
<glyph unicode="!" horiz-adv-x="569" d="M133 1165q0 27 37 27q45 0 139 -32t117 -44q25 -10 25 -43q0 -27 -6.5 -108.5t-14.5 -175t-8 -107.5q-10 -174 -10 -258q0 -76 -2 -82q-6 -10 -27 -10q-10 0 -99 18.5t-100 24.5q-20 8 -20 43l2 82q4 98 4 209q0 291 -23 393q0 4 -4 18.5t-7 27.5t-3 17zM160 160 q0 74 5 91t23 17q4 0 49.5 -10t99.5 -25.5t64 -27.5q12 -12 13 -121q0 -88 -11 -100q-6 -8 -20 -9q-25 0 -115 25t-100 41q-8 13 -8 119z" />
<glyph unicode="&#x22;" horiz-adv-x="833" d="M133 1104q0 129 100.5 129t100.5 -129q0 -33 -10 -131l-23 -213q-4 -47 -19.5 -69.5t-48 -22.5t-48 22.5t-19.5 69.5l-23 213q-10 98 -10 131zM502 1104q0 129 100 129t100 -129q0 -33 -10 -131l-22 -213q-4 -47 -19.5 -69.5t-48.5 -22.5t-48 22.5t-19 69.5l-23 213 q-10 98 -10 131z" />
<glyph unicode="#" horiz-adv-x="1228" d="M131 262v154h209l35 180h-178v154h209l51 262h172l-51 -262h170l51 262h172l-51 -262h178v-154h-209l-35 -180h178v-154h-209l-51 -262h-172l51 262h-170l-51 -262h-172l51 262h-178zM512 416h170l35 180h-170z" />
<glyph unicode="$" horiz-adv-x="1024" d="M66 154q0 68 46 138t81 70q27 0 31.5 -14t4.5 -61q0 -119 77 -180.5t186 -49.5v430q-217 20 -269 48q-127 66 -127 225q0 170 146 289q55 43 107 64.5t143 41.5v49q0 53 16 64q14 10 35 10q12 0 16 -18l-2 -105q150 2 249 -43t99 -115q0 -47 -35.5 -114.5t-70.5 -67.5 q-25 0 -31 64q-8 78 -56 136t-155 60v-370q166 -16 221 -33q180 -51 180 -244q0 -104 -48 -191t-116.5 -138.5t-131 -81t-105.5 -35.5v-91q0 -39 -8 -47q-14 -18 -41 -18q-12 0 -14 7t-2 30v108q-16 -2 -60 -2q-174 0 -289 74q-77 50 -77 111zM317 862q0 -131 175 -149v350 q-92 -18 -133.5 -79t-41.5 -122zM557 74q76 18 128 87.5t52 151.5q0 145 -180 168v-407z" />
<glyph unicode="%" horiz-adv-x="1441" d="M59 823q0 106 34 181t87 107t97.5 44t87.5 12q127 0 196 -80q74 -82 74 -249q0 -152 -81 -244t-222 -92q-137 0 -205 90t-68 231zM246 813q0 -150 26.5 -202t71.5 -52q31 0 51.5 15.5t38 80t17.5 181.5q0 135 -21.5 203.5t-77 68.5t-81 -67.5t-25.5 -227.5zM414 25 q0 12 78 168q203 430 380 831q53 135 80 174q8 12 17 12q14 0 39.5 -31.5t25.5 -50.5q0 -37 -67 -149q-20 -33 -144.5 -301t-146.5 -320l-172 -391q-12 -33 -26.5 -33t-39 37.5t-24.5 53.5zM813 297q0 154 75 250t232 96q143 0 206 -89t63 -230q0 -102 -30 -175t-79 -108 t-97 -50.5t-98 -15.5q-121 0 -196.5 81t-75.5 241zM999 295q0 -100 17 -176q20 -82 82 -82q35 0 55.5 18.5t35.5 85t15 187.5q0 145 -24.5 201.5t-73.5 56.5q-107 0 -107 -291z" />
<glyph unicode="&#x26;" horiz-adv-x="1327" d="M82 242q0 80 44 152.5t113.5 124.5t119 82t98.5 50q-23 35 -58 103q-43 86 -43 133q0 125 156 227.5t332 102.5q102 0 161.5 -49.5t59.5 -125.5q0 -106 -139 -217q-92 -74 -203 -127q168 -248 250 -329q92 100 92 209q0 33 -12 67q-18 53 -19 62q0 31 31 30 q37 0 96.5 -49t59.5 -100q0 -43 -57.5 -129t-131.5 -154q135 -141 172 -141q4 0 26.5 2t26.5 2q27 0 27 -27q0 -31 -86 -122t-117 -91q-27 0 -113.5 83t-125.5 128q-233 -168 -432 -168q-96 0 -166 30t-102.5 77t-46 87t-13.5 77zM334 344q0 -86 63.5 -153.5t168 -67.5 t220.5 84q-53 55 -155.5 191.5t-126.5 181.5q-49 -33 -80 -58.5t-60.5 -75t-29.5 -102.5zM600 963q0 -78 78 -193q84 45 123 111.5t39 119.5q0 35 -21.5 71t-75.5 36q-16 0 -33.5 -4t-46 -16.5t-46 -45t-17.5 -79.5z" />
<glyph unicode="'" horiz-adv-x="530" d="M166 1104q0 129 100.5 129t100.5 -129q0 -33 -11 -131l-22 -213q-4 -47 -19.5 -69.5t-48.5 -22.5t-48 22.5t-19 69.5l-23 213q-10 98 -10 131z" />
<glyph unicode="(" horiz-adv-x="681" d="M156 494q0 135 44 268t112.5 234.5t129 170t115.5 113.5l84 -82q-250 -307 -250 -709q0 -244 69.5 -411.5t186.5 -315.5l-88 -84q-125 113 -212 235t-125 233.5t-52 191.5t-14 156z" />
<glyph unicode=")" horiz-adv-x="681" d="M35 -238q119 150 188.5 318t69.5 412q0 393 -252 706l86 82q166 -145 282.5 -350t116.5 -436q0 -459 -403 -816z" />
<glyph unicode="*" horiz-adv-x="796" d="M82 864q0 10 8 15.5t47 19.5l152 59q-8 4 -148 60q-57 27 -59 35q0 23 36 79t50 56q12 0 41 -23q6 -6 58 -47t75 -57q-29 172 -29 196q0 31 97 31q78 0 77 -33q0 -16 -10 -67q-4 -16 -22 -131q39 31 129 104q35 27 45 27q18 0 51 -58.5t33 -78.5q0 -14 -19 -21 q-29 -14 -101.5 -40.5t-80.5 -31.5q10 -4 89 -33.5t93 -35.5q20 -14 21 -23q0 -18 -35 -76.5t-51 -58.5q-12 0 -49 31q-8 6 -62.5 51t-64.5 53q2 -12 9 -62t14 -94t7 -51q0 -16 -14 -22t-63 -6q-57 0 -78 5t-21 23q0 6 17.5 97.5t19.5 107.5q-164 -131 -168 -133h-6 q-18 0 -53 58.5t-35 74.5z" />
<glyph unicode="+" horiz-adv-x="745" d="M-6 629q0 6 10 13t16.5 7t35 1t47.5 1h34q49 -2 99 -2l-13 127q0 12 -6 77t-6 69q0 18 20 18q45 0 150 -47q25 -12 25 -31q0 -2 -5.5 -35.5t-5.5 -40.5q-10 -57 -14 -137h166h35q8 0 11 -5t5 -15.5t6 -16.5q16 -29 17 -100q0 -12 -19 -12q-70 4 -84 6q-6 0 -54 1t-77 1 q0 -14 3 -45t7 -86t9 -115l4 -45q2 -20 -15 -20q-27 0 -145 47q-25 10 -25 28q0 16 3 97.5t3 93.5l2 24v-4q2 4 3 17q-72 0 -95 -2l-71 -2q-20 0 -29 8l-25 61q-22 60 -22 64z" />
<glyph unicode="," horiz-adv-x="530" d="M-2 -260q0 2 27 55q86 166 121.5 290t35.5 179q0 49 3 58.5t24 9.5q25 0 79 -28t79 -44q41 -23 45 -45q20 -86 -209 -365q-127 -152 -158 -151q-10 0 -28.5 15.5t-18.5 25.5z" />
<glyph unicode="-" horiz-adv-x="833" d="M66 547q0 18 16 18q31 0 61 -6q178 -18 475 -18h87q10 -4 34 -66q23 -57 23 -63q0 -20 -29 -21q-61 -4 -225 -4q-350 0 -379 16q-10 6 -36.5 69t-26.5 75z" />
<glyph unicode="." horiz-adv-x="530" d="M133 203q0 68 6 85t27 17q18 0 107 -22.5t102 -32.5q12 -16 16 -37q2 -20 2 -111q0 -82 -5 -104.5t-30 -22.5q-4 0 -53 10.5t-104.5 28t-61.5 29.5q-6 17 -6 160z" />
<glyph unicode="/" horiz-adv-x="606" d="M14 -27q0 4 60 158q45 115 218 588t187 516q18 51 33 51q12 0 46 -28.5t34 -40.5q0 -27 -25 -72q-133 -326 -319 -856q-121 -342 -133 -369q-8 -20 -23 -20q-4 0 -22.5 11t-37 29.5t-18.5 32.5z" />
<glyph unicode="0" horiz-adv-x="1062" d="M63 532q0 289 133.5 436.5t370.5 147.5q199 0 307 -121q125 -137 125 -417q0 -328 -163 -484q-127 -121 -320 -121q-231 0 -354 166q-99 131 -99 393zM338 514q0 -229 45 -350q45 -109 145 -109q61 0 100.5 34t66 145.5t26.5 306.5q0 254 -37 368q-37 125 -152 125 q-94 0 -137 -94q-57 -121 -57 -426z" />
<glyph unicode="1" horiz-adv-x="833" d="M-68 643q0 16 162 131q49 35 182.5 143.5t241.5 208.5q23 16 33 17q29 0 29 -31q0 -6 -15 -121q-25 -225 -24 -604q0 -113 3 -230.5t3 -170.5v-4q0 -27 -18.5 -27t-104.5 26.5t-123 41.5q-35 14 -35 26q0 78 6 189q12 293 21 559q-14 -14 -78.5 -93t-75.5 -92 q-27 -29 -39 -28q-20 0 -94 19.5t-74 39.5z" />
<glyph unicode="2" horiz-adv-x="985" d="M23 123q0 16 51 41q242 117 381 244q113 104 156.5 231t43.5 229q0 164 -129 164q-59 0 -103 -35.5t-62.5 -88t-26.5 -92.5t-8 -66q0 -59 23.5 -91t45 -38.5t58.5 -8.5q23 0 22 -24q0 -27 -59.5 -47.5t-114.5 -20.5q-104 0 -164.5 59.5t-60.5 157.5q0 145 134 263 t349 118q160 0 264.5 -81t104.5 -234q0 -66 -25.5 -126.5t-59.5 -104.5t-111 -102t-135 -96t-177 -112l-41 -24q-31 -18 -37 -23q-10 -10 -10 -12q0 -12 37 -19q66 -12 247 -12q98 0 277 16q25 2 45 2t25 -10q4 -12 -28 -53t-65 -51q-336 -96 -643 -96q-68 0 -87 6t-46 39 q-71 71 -71 98z" />
<glyph unicode="3" horiz-adv-x="948" d="M-31 111q0 14 13.5 25t25.5 11q16 0 29 -16q168 -150 305 -149q76 0 128 39.5t72.5 102t28 105.5t7.5 80q0 211 -187 211q-31 0 -67 -8q-12 -2 -23.5 -5t-15.5 -3t-7.5 -1t-5.5 -1q-23 0 -43 43t-20 63q0 16 14 17q2 0 64.5 -7.5t74.5 -7.5q68 0 114 36t61.5 91.5 t19.5 84t4 52.5q0 158 -131 158q-94 0 -149.5 -74.5t-71.5 -150.5q-8 -49 -37 -49q-12 0 -19.5 6t-11.5 15t-8 26q-35 117 -35 156q0 14 2 20t13.5 18.5t36.5 28.5q129 90 333 90q160 0 257.5 -58.5t97.5 -172.5q0 -141 -146 -234q-41 -25 -174 -71q57 -6 90 -12.5t88.5 -25 t87 -44t56 -74.5t24.5 -113q0 -125 -107.5 -230.5t-256 -158.5t-289.5 -53q-72 0 -102 31q-43 43 -91.5 114.5t-48.5 94.5z" />
<glyph unicode="4" horiz-adv-x="985" d="M37 414q0 14 22 55q158 268 254 643q10 43 16.5 53.5t18.5 10.5q33 0 94 -103q61 -98 62 -125q0 -39 -155.5 -264t-155.5 -227q0 -10 34 -17q197 -25 287 -24q0 23 3 135.5t3 130.5v127q0 18 27 18q49 0 194 -79q35 -16 42.5 -24.5t7.5 -31.5q0 -2 -15 -117 q-10 -129 -8 -165q23 -4 55 0q10 0 63.5 6t61.5 6q23 0 23 -16.5t-31 -55.5t-45 -45t-127 -20q-6 -172 2 -279q4 -51 -25 -51q-20 0 -107 26.5t-118 41.5q-25 12 -24 36q0 4 4 41t6 54q8 74 8 114q-25 -4 -276 -4l-82 2q-27 0 -43 21q-76 115 -76 127z" />
<glyph unicode="5" horiz-adv-x="985" d="M-39 115q0 33 39 32q16 0 39 -20q45 -41 125 -88q70 -43 151 -43q131 0 227.5 121t96.5 280q0 199 -141 199q-117 0 -289 -141q-37 -31 -47 -31q-23 2 -23 27q0 6 3 38.5t3 36.5q10 131 11 326q0 18 -5.5 113.5t-5.5 105.5q0 31 21 31q2 0 6 -1t15.5 -2t27.5 -3 q127 -18 291 -19q184 0 342 41q23 8 39 8q23 0 22 -18q0 -31 -65 -135q-33 -55 -47.5 -67.5t-36.5 -12.5q-51 0 -155.5 24.5t-196.5 61.5l-13 -315q104 51 232 51q139 0 216 -80t77 -193q0 -117 -80 -227.5t-196 -183t-242 -117.5t-224 -45q-39 0 -56.5 9t-39.5 34 q-23 27 -72 101.5t-49 101.5z" />
<glyph unicode="6" horiz-adv-x="1024" d="M43 289q0 141 111 329q160 274 438 510q115 98 158 99q20 0 31.5 -9.5t33.5 -41.5q80 -111 80 -134q0 -25 -29 -24q-6 0 -32.5 6t-32.5 6q-16 0 -67.5 -23.5t-122 -66.5t-147.5 -124t-126 -179q141 92 295 92q162 0 239.5 -89t77.5 -198q0 -180 -162.5 -324.5 t-388.5 -144.5q-106 0 -182 33t-110.5 86t-49 101.5t-14.5 95.5zM303 395q0 -72 13.5 -139.5t58.5 -125.5t114 -58q90 0 142 59q55 66 55 215q0 262 -178 262q-129 0 -186 -88q-19 -27 -19 -125z" />
<glyph unicode="7" horiz-adv-x="872" d="M2 1116q0 23 25 23q10 0 51 -11q213 -51 432 -51q199 0 299 13q4 0 26.5 3t26.5 3q23 0 37 -31t14 -43q0 -10 -20 -37q-68 -78 -139.5 -177t-170 -300t-145.5 -404q-2 -10 -17 -83.5t-18 -81.5q-6 -20 -20 -21q-27 0 -201 160q-23 23 -22 41q0 37 87 191.5t154 250.5 q88 129 209 261t158 161q-23 -4 -131.5 -30.5t-126.5 -30.5q-195 -39 -324 -39q-51 0 -66.5 8t-29.5 33q-88 157 -88 192z" />
<glyph unicode="8" horiz-adv-x="1024" d="M53 266q0 109 73 199t241 131q-236 37 -236 221q0 133 111.5 215t312.5 82q37 0 70.5 -2t91 -15.5t98.5 -37t72 -71.5t31 -116q0 -59 -26 -106t-73 -79t-77.5 -47t-77.5 -32q55 -8 91 -18t89 -37t80.5 -79t27.5 -128q0 -168 -140 -271.5t-357 -103.5q-186 0 -294 78 t-108 217zM319 256q0 -45 9.5 -85t48.5 -79t102 -39q70 0 116 39t62.5 100.5t21.5 97.5t5 66q0 197 -154 197q-68 0 -113.5 -35t-65 -89t-26 -94t-6.5 -79zM387 799q0 -68 21.5 -106t46 -47t59.5 -9q61 0 92 45q51 74 51 186q0 162 -120 162q-74 0 -115 -69 q-35 -66 -35 -162z" />
<glyph unicode="9" horiz-adv-x="1024" d="M70 674q0 186 175 315t392 129q164 0 256 -80t92 -221q0 -90 -45 -201.5t-117.5 -217t-114.5 -160t-83 -101.5q-70 -78 -146 -147.5t-124 -104.5t-60 -35q-16 0 -30.5 13.5t-65.5 73.5q-55 74 -56 94q0 29 31 28q4 0 28.5 -7t30.5 -7q35 0 111 50t133 100q115 98 195 251 q-113 -70 -258 -69q-147 0 -245.5 79t-98.5 218zM338 727q0 -133 53 -188.5t117 -55.5q94 0 168 78q45 47 45 203q0 25 -1 47.5t-11.5 68.5t-27.5 76.5t-55 52t-91 13.5q-63 -10 -107.5 -47t-62 -89t-22.5 -88t-5 -71z" />
<glyph unicode=":" horiz-adv-x="569" d="M162 78v127v47q0 14 3 28.5t8 18.5t15 4q18 0 103.5 -23.5t105.5 -33.5q12 -8 15.5 -29.5t3.5 -103.5q0 -96 -4 -117t-29 -21q-16 0 -108.5 24t-104.5 44q-8 10 -8 35zM162 737q0 74 6 92.5t27 18.5q14 0 104 -22.5t104 -41.5q12 -16 13 -131q0 -92 -4 -111.5t-25 -19.5 q-16 0 -109.5 24.5t-105.5 39.5q-10 14 -10 151z" />
<glyph unicode=";" horiz-adv-x="569" d="M10 -260q0 23 39 82q66 125 106 252t40 182v59q2 18 24 19q16 0 70.5 -26.5t89.5 -47.5q37 -23 47 -47q2 -8 2 -20q0 -43 -81 -164t-171 -223.5t-119 -102.5q-10 0 -28.5 12.5t-18.5 24.5zM182 741q0 70 6.5 88.5t26.5 18.5q18 0 108.5 -23.5t102.5 -40.5q10 -16 10 -125 q0 -106 -4 -120q-8 -14 -24 -15q-4 0 -51.5 9.5t-101.5 25.5t-65 33q-8 12 -8 149z" />
<glyph unicode="&#x3c;" horiz-adv-x="1228" d="M96 424v188l1037 441v-197l-803 -338l803 -338v-196z" />
<glyph unicode="=" horiz-adv-x="1228" d="M96 211v197h1037v-197h-1037zM96 629v196h1037v-196h-1037z" />
<glyph unicode="&#x3e;" horiz-adv-x="1228" d="M96 -16v196l803 338l-803 338v197l1037 -441v-188z" />
<glyph unicode="?" horiz-adv-x="948" d="M29 1024q0 84 61 119q147 84 346 84q242 0 367 -86q96 -63 84 -162q-8 -49 -33 -84t-82 -61.5t-103 -42t-149 -41.5q-170 -45 -170 -168q0 -57 32 -93t61.5 -44.5t58.5 -8.5q57 0 96 35t39 92q0 14 -25 80q0 2 -2 6v4q0 23 23 23q41 0 105.5 -53.5t64.5 -112.5 q0 -70 -84 -115t-219 -45q-164 0 -283 65.5t-119 168.5q0 57 41 100t80 60.5t98 35.5q168 51 222.5 85t54.5 114q0 76 -53.5 117t-132.5 41q-162 0 -261 -168q-4 -4 -16 -34t-16 -36q-8 -14 -25 -14q-25 0 -43 44t-18 95zM322 66v98q0 68 5 88t25 20q6 0 85 -20.5t93 -26.5 q31 -12 39.5 -27.5t5.5 -62.5l-4 -135q-4 -25 -26 -25q-14 0 -106.5 26t-104.5 36q-8 9 -12 29z" />
<glyph unicode="@" horiz-adv-x="1363" d="M68 586q0 258 176 434t458 176q258 0 426 -145.5t168 -374.5q0 -178 -90 -306t-248 -128q-133 0 -170 123h-4q-74 -123 -206 -123q-74 0 -133.5 52t-59.5 171q0 152 95 288t251 136q113 0 150 -86h4l14 61h150l-109 -415q-12 -53 -12 -74q0 -53 63 -53q74 0 134.5 103 t60.5 234q0 193 -132 316t-352 123q-182 0 -318 -140.5t-136 -398.5q0 -203 137 -338t336 -135q213 0 350 82l21 -96q-166 -96 -377 -97q-285 0 -466 173.5t-181 437.5zM555 496q0 -145 96 -146q70 0 133.5 95.5t63.5 242.5q0 43 -22.5 71.5t-65.5 28.5q-70 0 -137.5 -89.5 t-67.5 -202.5z" />
<glyph unicode="A" horiz-adv-x="1933" d="M-51 -20q0 12 9 23t22 11l36 -12q59 -33 93 -33q57 0 159 94q94 86 262 287q14 18 23 29q-20 0 -123.5 -5t-120.5 -5q-39 0 -61.5 14t-48.5 63q-45 86 -45 129q0 23 24 23l86 -23q6 -2 37 -10t50.5 -12t57 -12.5t71.5 -13.5t80 -9t93 -4q150 209 322 510q-96 86 -262 100 q-59 6 -73.5 12.5t-14.5 28.5q0 27 27.5 34t101.5 7q156 0 334 -29.5t233 -62.5q16 -10 25.5 -17t30 -41t44.5 -89q6 -14 101.5 -237.5t113.5 -264.5q96 -209 136 -270q25 -35 67 -35q31 0 43 -1t22.5 -8.5t10.5 -23.5q0 -29 -103 -76q-168 -84 -243 -84q-37 0 -59.5 23.5 t-55.5 93.5q-29 57 -162 351t-153 337q-51 100 -99 176q-31 -66 -116.5 -225.5t-114.5 -216.5q129 0 213 4q14 0 79.5 3t72.5 3q23 0 38 -14.5t15 -34.5q0 -10 -2 -15.5t-13.5 -10.5t-18.5 -6t-30 -5q-61 -12 -420 -39q-190 -324 -346 -500q-111 -125 -161 -124 q-61 0 -174 93t-113 120z" />
<glyph unicode="B" horiz-adv-x="1744" d="M18 1042q0 12 1 18.5t10.5 13.5t29.5 16q78 33 273 59q-10 82 -10 96q0 39 36 39q23 0 122.5 -25.5t137.5 -39.5q61 -20 68 -35l191 4q33 1 65 1q570 0 569 -245q0 -76 -70.5 -141.5t-150.5 -100t-196 -73.5q94 -4 142 -7.5t128 -11.5t122 -23.5t89 -41t67.5 -65.5 t20.5 -93q0 -182 -236.5 -296t-687.5 -114q-139 0 -272 15.5t-199.5 30t-81.5 22.5q-16 12 -46.5 88t-30.5 98q0 20 18 21q6 0 45 -19q94 -41 184 -71q-2 377 -6 641q-2 147 -8 215q-80 -18 -160 -64q-4 -2 -20.5 -13t-30.5 -20.5t-20 -9.5q-14 0 -46 26t-38 36q-9 14 -9 69 zM629 100q158 -20 231 -20q225 0 334 80t109 198q0 111 -95.5 157t-304.5 46q-16 0 -96 -2t-88 -2q-23 0 -23 27q0 84 43 84q8 0 56.5 -3t56.5 -3q133 0 228.5 51t95.5 157q0 59 -40 103.5t-90.5 66t-121 32.5t-106.5 13t-73 2q-45 0 -63 -2q-16 -156 -37 -602 q-12 -340 -16 -383z" />
<glyph unicode="C" horiz-adv-x="1744" d="M47 375q0 190 165 383.5t421 315.5t508 122q145 0 253.5 -28.5t139.5 -61.5q39 -43 64.5 -115.5t25.5 -97.5q0 -29 -27 -29q-4 0 -30.5 14.5t-60 35t-40.5 22.5q-238 121 -456 121q-121 0 -223.5 -42t-168 -107.5t-111.5 -146.5t-65.5 -158t-19.5 -142q0 -195 182 -283 q115 -51 309 -51q295 0 646 121q111 35 114 35q31 0 39 -27q4 -16 4 -29q0 -20 -13 -32.5t-54 -28.5q-465 -190 -916 -191q-109 0 -196.5 8.5t-182 34t-159 67.5t-106.5 117t-42 173z" />
<glyph unicode="D" horiz-adv-x="1820" d="M-43 1051q0 41 45 55q80 23 320 59q-4 53 -5 82q0 43 29 43q25 0 116 -22.5t152 -42.5q57 -18 64 -39q42 1 82 1q344 0 594 -63q49 -12 87 -25.5t97 -46t99 -75.5t70 -116t30 -163q0 -326 -322 -536q-272 -182 -743 -182q-117 0 -293 15t-209 44q-20 18 -56 92t-36 90 q0 27 22 27q10 0 70 -31q57 -31 170 -61l-4 526q0 29 -3 177.5t-3 172.5q-160 -41 -240 -98q-23 -16 -41 -16q-43 0 -80 55q-12 19 -12 78zM616 98q86 -14 154 -14q274 0 442 151.5t168 432.5q0 100 -40 177t-103 120t-142 72.5t-158 36.5t-150 12q-32 2 -58 3q-32 0 -57 -4 q-52 -747 -56 -987z" />
<glyph unicode="E" horiz-adv-x="1744" d="M47 375q0 268 311 522q373 299 785 299q104 0 226 -22.5t167 -71.5q29 -33 59.5 -110t30.5 -103q0 -14 -8 -20.5t-16.5 -6.5t-28.5 12q-295 184 -561 185q-152 0 -274 -63.5t-190.5 -159t-103 -193.5t-34.5 -182q0 -156 118 -250q119 -92 375 -92q311 0 694 129 q61 20 64 20q29 0 41 -30q6 -12 6 -23q0 -23 -12.5 -34t-65.5 -31q-213 -80 -423 -127.5t-482 -47.5q-152 0 -268.5 18.5t-211.5 62.5t-146.5 124t-51.5 195zM477 573.5q0 20.5 11.5 31.5t21.5 12t33 1q438 0 786 64q6 0 40 8t40 8q29 0 29 -26q0 -14 -20.5 -71.5 t-41.5 -80.5q-25 -33 -147 -33q-285 0 -711 58q-41 8 -41 28.5z" />
<glyph unicode="F" horiz-adv-x="1402" d="M-16 1149q0 27 24 27q14 0 125 -15q45 -6 127 -12q0 8 -2 49t-2 47q0 43 29 43q45 0 221 -88q31 -14 46 -25.5t18 -17.5t8 -18q207 0 524 30q18 2 93 9.5t140.5 14.5t71.5 7q27 0 27 -24q0 -57 -62 -175q-18 -31 -37.5 -38t-60.5 -7q-43 0 -326 37q-215 25 -377 35 q-10 -164 -10 -276q0 -360 17 -648q0 -6 4 -34.5t7 -53t3 -26.5q0 -23 -33 -23q-45 0 -131 23.5t-143 48.5q-29 12 -40.5 22.5t-11.5 28.5q0 4 4.5 60.5t4.5 66.5q23 455 22 807q-49 -6 -102 -10q-78 -10 -90 -10q-31 0 -56 47q-32 61 -32 98zM606 588q0 29 17.5 35t72.5 8 q283 8 467 49l109 25q22 0 21 -19q0 -4 -1 -10q-12 -68 -63 -144q-25 -35 -74 -34q-12 0 -79.5 5t-186.5 17t-211 29q-72 12 -72 39z" />
<glyph unicode="G" horiz-adv-x="1896" d="M43 336q0 102 41 202.5t105.5 176.5t110.5 119t91 75q381 281 823 281q125 0 252 -20.5t164 -49.5q49 -37 88 -127t39 -123q0 -31 -26 -30q-6 0 -13.5 3t-13.5 5l-4 4q-332 211 -635 211q-139 0 -254 -45t-187.5 -113.5t-123.5 -154.5t-71.5 -165t-20.5 -147 q0 -51 14 -99t49 -102.5t110.5 -87t184.5 -32.5q129 0 246.5 48t188.5 111.5t112 118t41 74.5q0 12 -11.5 91t-11.5 91q0 25 27 25q53 0 186 -41t150 -88q4 -10 7 -59.5t6 -105.5t5 -71q27 -256 45 -358q0 -2 6 -33t10.5 -57.5t4.5 -28.5q0 -23 -31 -22q-39 0 -148.5 30.5 t-123.5 71.5q-8 18 -52 205q-12 57 -21 99t-12.5 57.5t-7.5 29.5q-125 -139 -284 -217q-242 -119 -535 -119q-141 0 -251.5 32t-189.5 118t-79 217z" />
<glyph unicode="H" horiz-adv-x="1705" d="M14 678q0 33 29 33q4 0 29.5 -6.5t54.5 -13.5l37 -9q63 -14 129 -20q3 8 3 97q0 45 -1 110q-2 196 -23 235q-4 8 -45 55q-10 10 -10 25q0 29 41 28q27 0 114 -16t167 -43q39 -12 54 -19.5t27.5 -21.5t12.5 -37q0 -57 -15 -186q-12 -168 -18 -254q158 -8 299 -8 q20 0 121.5 3t116.5 3q39 0 39 -41q0 -20 -14.5 -28.5t-74.5 -16.5q-340 -49 -491 -60q-10 -236 -14 -487q0 -31 -1 -43t-8.5 -20.5t-23.5 -8.5q-8 0 -42 7.5t-92.5 24.5t-103.5 38q-29 12 -35 20.5t-6 30.5q0 4 4.5 64.5t4.5 72.5q10 164 10 297q-32 -1 -58 -1 q-106 0 -135 20q-23 18 -52.5 83.5t-29.5 92.5zM1174 1159q0 31 38 31q14 0 60.5 -6t123.5 -23.5t134 -42.5q31 -12 41 -30.5t10 -67.5q0 -35 -11 -195.5t-11 -177.5q-10 -334 -11 -379q0 -102 6 -219l2 -41q0 -35 -40 -35q-39 0 -158 27t-127 57q-1 4 -1 26q0 33 2 105 q3 121 7 262.5t4 176.5q0 307 -2 358q-4 90 -35 125q-32 37 -32 49z" />
<glyph unicode="I" d="M55 1307q0 8 3 13t11.5 7t15.5 2t18.5 -1t15.5 -1q20 0 96 -15.5t125 -35.5q31 -14 31 -45q-31 -555 -31 -1079q0 -72 10 -121q2 -12 10.5 -21.5t13.5 -13.5q9 -7 9 -14q0 -4 -6 -7q-2 -2 -55.5 -2t-196.5 60q-29 10 -29 45q0 84 10 289q8 281 9 620q0 61 -13 234 q-2 18 -24.5 49t-22.5 37z" />
<glyph unicode="J" horiz-adv-x="1478" d="M-12 47q0 63 35.5 157.5t72.5 94.5q14 0 18.5 -7t12.5 -46q41 -186 182.5 -314.5t308.5 -128.5q82 0 173.5 49.5t140.5 176.5q57 145 63 467q4 137 4 254q0 147 -6 264q-29 -2 -167 -15.5t-152 -15.5q-219 -16 -326 -16q-59 0 -81.5 8t-49.5 45q-20 27 -42.5 85t-22.5 81 q0 33 24 33q2 0 83 -18.5t226.5 -37t302.5 -20.5l201 -2v29v47v24q2 25 43 25q39 0 125 -23.5t123 -42.5q41 -20 43 -55q98 8 150 8q25 0 24 -20q0 -39 -37 -62q-10 -6 -135 -27q1 -59 1 -113q0 -288 -18 -464q-22 -209 -83 -334q-100 -203 -268.5 -318.5t-399.5 -115.5 q-236 0 -402.5 103.5t-166.5 244.5z" />
<glyph unicode="K" horiz-adv-x="1705" d="M127 1186q0 10 11.5 19t29.5 9q31 0 160 -26.5t180 -54.5q31 -16 31 -62q0 -80 -13 -190q-23 -317 -22 -371q229 127 450 317q299 260 349 437q8 31 26 30q31 0 81 -99t50 -144q0 -39 -133 -142q-203 -162 -373 -260q63 -72 226 -239.5t295 -276.5q100 -86 157 -86l45 4 q35 0 35 -33q0 -25 -102 -88q-184 -109 -242 -108q-33 0 -90 49q-131 117 -243.5 234.5t-360.5 394.5q-35 -18 -172 -82v-49v-66v-67q0 -16 2 -105.5t2 -103.5q0 -35 -5 -45.5t-30 -10.5q-29 0 -121 19.5t-141 42.5q-33 14 -33 45q0 68 10 313q2 72 3 126t2.5 74.5t1.5 39.5 q0 391 -21 463q-6 27 -29 53q-16 25 -16 39z" />
<glyph unicode="L" horiz-adv-x="1441" d="M33 213q0 27 26 27l72 -19q20 -6 145 -18q8 270 9 432q0 375 -35 452q-12 27 -49 68q-18 18 -19 33q0 33 45 33q41 0 170 -30t181 -54q39 -18 47 -41t8 -100.5t-25.5 -451.5t-25.5 -376q139 -14 379 -14q190 0 323 6q10 0 64.5 4t62.5 4q41 0 41 -27q0 -35 -16.5 -48 t-47 -21.5t-179 -31t-382 -46t-405.5 -23.5q-227 0 -275 39q-33 29 -73.5 101.5t-40.5 101.5z" />
<glyph unicode="M" horiz-adv-x="2238" d="M-41 -41q0 33 31 33q16 0 65 -31q16 -10 31 -10q68 0 201 278q131 262 258 740q-37 59 -77 85.5t-106 43.5q-72 16 -71 45q0 43 57 43q88 0 272.5 -22.5t235.5 -63.5q18 -16 55 -109q4 -12 52.5 -131t113 -269.5t94.5 -207.5q37 -61 46 -61q12 0 43 53q199 348 382 751 q16 35 22.5 43.5t25.5 8.5q33 0 138 -27t116 -49q2 -4 8 -74q39 -530 125 -817q12 -41 23 -50t59 -20q45 -8 45 -37q0 -27 -105 -67q-195 -78 -274 -78q-25 0 -37 25.5t-41 138.5q-45 172 -88 491q-4 23 -14.5 134.5t-10.5 119.5q-242 -492 -387 -718q-53 -82 -88 -123 t-48 -47.5t-32 -6.5q-45 0 -93 74t-116 219q-20 45 -127.5 295t-128.5 291q-141 -602 -258 -913q-18 -49 -30.5 -79t-32 -70t-37.5 -59.5t-37 -19.5q-47 0 -217 180q-43 45 -43 68z" />
<glyph unicode="N" horiz-adv-x="1896" d="M-51 -57q0 33 31 32q20 0 55 -24q41 -25 55 -25q59 0 161.5 228.5t168.5 474.5q25 78 45 180q8 37 14 68l9 46q3 15 5.5 26.5t3.5 16.5t3 9q-6 4 -37 35.5t-37 38.5q-35 29 -117 59q-37 10 -37 41q0 37 70 37q88 0 282.5 -25.5t227.5 -62.5q2 -4 66.5 -92t139.5 -189.5 t97 -130.5q82 -109 224.5 -269.5t176.5 -160.5q25 0 33 51q14 76 15 195q0 203 -40 382t-102 220q-53 37 -53 51q0 35 45 35q37 0 115 -18.5t141 -61.5q29 -18 35 -38.5t6 -100.5q0 -145 -22.5 -395t-61.5 -416q-29 -123 -70 -167t-98 -44q-41 0 -78 18.5t-133 108.5 t-254 268q-96 109 -416 492q-20 25 -40 45q-4 -25 -21.5 -140.5t-19.5 -122.5q-92 -489 -203 -774q-20 -49 -37.5 -74.5t-27 -30.5t-23.5 -5q-70 0 -183.5 83t-113.5 126z" />
<glyph unicode="O" horiz-adv-x="1972" d="M76 473q0 119 50 227.5t131 189.5t147.5 130t134.5 88q121 66 274.5 117t187.5 51q29 0 29 -37q0 -14 -1 -20.5t-8 -12.5t-14.5 -8t-25.5 -8q-225 -72 -358 -189q-96 -86 -143.5 -204.5t-47.5 -233.5q0 -197 134 -334t347 -137q274 0 455.5 194.5t181.5 438.5 q0 137 -78.5 233.5t-238.5 96.5q-178 0 -389 -105q-53 -27 -64 -26q-33 0 -32 49q0 31 96 71q301 133 579 134q33 0 56.5 -1t78 -9.5t94.5 -23t90 -44t83 -71.5t55.5 -109.5t22.5 -151.5q0 -147 -101.5 -301t-279.5 -266q-133 -84 -338 -157t-455 -73q-301 0 -477 133 t-176 369z" />
<glyph unicode="P" horiz-adv-x="1669" d="M25 1046.5q0 18.5 8 24.5t37 12q104 29 217 39q-10 51 -11 101q0 23 33 22q47 0 144.5 -24.5t136.5 -65.5q174 20 383 21q301 0 485 -62q184 -63 184 -240q0 -137 -125.5 -257.5t-311 -187.5t-365.5 -67q-115 0 -138 35q-2 2 -13 24.5t-24.5 61.5t-13.5 70q0 35 25 35 q8 0 47 -33q33 -29 97.5 -56.5t137.5 -27.5q139 0 243 84t104 227q0 145 -107.5 218t-347.5 73q-127 0 -258 -26q-6 -344 -6 -400q0 -352 24 -559q0 -6 5.5 -32.5t9.5 -51t4 -27.5q0 -25 -39 -24q-115 0 -268 57q-41 14 -52.5 29.5t-11.5 48.5q0 61 9 208.5t12 184.5 q13 258 12 446v52q-53 -10 -119 -39q-14 -6 -31.5 -16.5t-27 -15.5t-17.5 -5q-23 0 -47 62.5t-24 81z" />
<glyph unicode="Q" horiz-adv-x="1972" d="M76 473q0 119 50 227.5t131 189.5t147.5 130t134.5 88q121 66 274.5 117t187.5 51q29 0 29 -37q0 -14 -1 -20.5t-8 -12.5t-14.5 -8t-25.5 -8q-225 -72 -358 -189q-96 -86 -143.5 -204.5t-47.5 -233.5q0 -207 141.5 -340t346.5 -133q262 0 446 193.5t184 441.5 q0 137 -78.5 233.5t-238.5 96.5q-178 0 -389 -105q-53 -27 -64 -26q-33 0 -32 49q0 31 96 71q299 133 579 134q33 0 56.5 -1t78 -9.5t94.5 -23t90 -44t83 -71.5t55.5 -109.5t22.5 -151.5q0 -147 -101.5 -301t-279.5 -266q-133 -84 -338 -157t-455 -73q-301 0 -477 133 t-176 369zM555 -170q0 27 43 41q147 49 313 49q70 0 328 -37q199 -27 297 -26q84 0 140.5 11t81 22.5t61.5 37.5q33 23 41 23q22 0 22 -22q0 -6 -2 -15q-2 -10 -8 -33.5t-27.5 -63.5t-50.5 -74t-82 -59.5t-119 -25.5q-102 0 -376 76q-336 92 -451 92q-31 0 -123 -10 q-2 0 -29.5 -8.5t-33.5 -8.5q-25 0 -25 31z" />
<glyph unicode="R" horiz-adv-x="1781" d="M4 1044q0 10 2 16.5t9.5 9.5t12.5 4t19 5l124 23q101 18 105 18q0 4 -3 27.5t-5 42t-2 22.5q0 31 43 31q90 0 217 -53q45 -20 54 -37q176 23 395 23q350 0 504 -74q141 -66 141 -193q0 -61 -32 -115.5t-83 -92t-81.5 -56t-63.5 -33.5q-156 -74 -316 -98 q279 -211 358 -268.5t148 -95.5q43 -25 82 -25q6 0 40 7t40 7q27 0 27 -26q0 -35 -117 -138q-127 -117 -186 -116q-68 0 -381 254q-174 141 -348 288q-55 47 -67.5 60.5t-12.5 27.5q0 16 22.5 53.5t44.5 37.5l39 -5q25 -2 76 -2q195 0 331 67t136 202q0 98 -97.5 165.5 t-316.5 67.5q-133 0 -282 -26v-19q0 -88 -1 -228t-1 -231q0 -276 16 -415q0 -8 5 -50.5t9 -80t4 -43.5q0 -27 -37 -27q-43 0 -146 22.5t-150 49.5q-18 10 -23.5 22t-5.5 43q0 25 24 516q8 115 9 381q-92 -31 -172 -74q-18 -12 -29 -12q-25 0 -51.5 52t-26.5 89z" />
<glyph unicode="S" horiz-adv-x="1857" d="M35 195q0 41 33 41q14 0 55 -39q86 -82 254 -127q207 -53 457 -54q238 0 404.5 70t166.5 180q0 92 -100.5 121t-382.5 49q-371 27 -504 41q-41 6 -64.5 9t-64.5 17.5t-63.5 34t-41 55.5t-18.5 85q0 197 256 356.5t643 159.5q186 0 325.5 -26.5t184.5 -69.5 q51 -51 79.5 -119t28.5 -98q0 -35 -24 -35q-14 0 -70 41q-33 27 -105.5 63.5t-233 81.5t-326.5 45q-207 0 -306.5 -60.5t-99.5 -135.5q0 -68 68.5 -93.5t261.5 -42.5q551 -43 690 -71q94 -18 150.5 -72.5t56.5 -142.5q0 -98 -60.5 -183.5t-207.5 -181.5 q-156 -102 -391.5 -174t-495.5 -72q-313 0 -404 70q-43 33 -97 131.5t-54 145.5z" />
<glyph unicode="T" horiz-adv-x="1593" d="M-14 1196q0 25 24 25q6 0 117 -25q268 -49 489 -55q10 82 11 98q8 25 28 25q16 0 96 -28t134 -56q33 -20 37 -45q256 0 368 4q18 0 94 4t145.5 7t90.5 3q31 0 31 -23q0 -55 -70 -65q-418 -76 -682 -94q-45 -451 -45 -604q0 -57 3 -95.5t14.5 -77t37 -58t64.5 -19.5 q143 0 334 149l45 35q8 4 14 4q20 0 53 -30.5t33 -53.5q0 -20 -43 -43q-168 -84 -356.5 -149.5t-311.5 -65.5q-139 0 -194 82q-33 47 -33 127q0 86 33 382t47 392q-20 0 -128 -2t-126 -2q-123 0 -150.5 8t-72.5 60q-41 43 -86 105.5t-45 80.5z" />
<glyph unicode="U" horiz-adv-x="1744" d="M158 1167q0 31 61 31q158 -2 307 -68q43 -20 56.5 -33.5t13.5 -39.5q0 -74 -35 -260q-66 -371 -65 -459q0 -170 141 -170q156 0 307 213q74 106 142.5 266t68.5 305q0 12 -5 72.5t-5 65.5q0 39 31 38q43 0 123.5 -24.5t132.5 -52.5q39 -20 47 -35t8 -55q0 -240 31 -519 q29 -307 63 -352q14 -16 80 -18q43 -2 43 -35q0 -10 -3 -15.5t-22.5 -18.5t-62.5 -38q-215 -117 -291 -117q-16 0 -25.5 4.5t-20.5 27t-19 65.5q-59 301 -64 725q-111 -309 -272 -473q-229 -240 -482 -240q-78 0 -133 23.5t-81.5 53t-41 74t-16.5 66t-2 49.5q0 98 37 393 q33 295 33 375q0 78 -33 111q-47 45 -47 65z" />
<glyph unicode="V" horiz-adv-x="1630" d="M37 1149q0 33 74 33q92 0 237.5 -21.5t165.5 -60.5q4 -8 92 -258q168 -459 248 -613q14 -35 33 -34q16 0 58 36.5t105.5 117.5t114.5 177q137 258 138 471q0 94 -37 201q-20 41 -21 55q0 27 27 27q59 0 194 -129q103 -97 103 -161q0 -85 -128 -291q-116 -185 -257 -355 q-158 -190 -313.5 -304t-213.5 -114q-35 0 -60.5 50.5t-121.5 297.5q-266 694 -323 781q-14 23 -78 53q-37 16 -37 41z" />
<glyph unicode="W" horiz-adv-x="2275" d="M70 1147q0 37 69 37q76 0 245 -25.5t198 -73.5q2 -6 32 -174q61 -346 115 -587q8 -29 23 -29q33 0 143 213q125 233 192 420q12 31 39 43q33 14 85.5 28.5t85 20.5t36.5 6q25 0 37 -55q2 -8 11.5 -56.5t11.5 -56.5q76 -297 166 -541q29 -78 42 -99t35 -21q53 0 146 139 q131 188 131 483q0 186 -49 334q-27 74 -27 84q0 18 25 18q53 0 178 -81q121 -76 121 -242q0 -76 -25 -174.5t-106.5 -251t-212.5 -291.5q-113 -119 -234 -205t-170 -86q-23 0 -40 14.5t-25.5 30t-20.5 41.5q-33 76 -88 250t-93 305t-40 144q-8 -14 -42 -84t-38 -78 q-96 -184 -177 -306t-179 -216q-102 -96 -156 -97q-35 0 -49 38t-39 169q-137 731 -188 842q-37 84 -142 135q-26 17 -26 35z" />
<glyph unicode="X" horiz-adv-x="1630" d="M27 -131q0 18 45 74q174 213 290 340q221 242 275 290q-260 319 -343 399.5t-206 135.5q-33 14 -33 35q0 25 17.5 30t66.5 5q63 0 268 -25t244 -51q12 -8 59.5 -69.5t101.5 -137.5t65 -90q20 18 112 99t157.5 137.5t117.5 93.5q94 74 114 88q10 6 21 6q25 0 83 -38 t93 -71q23 -20 43 -50t20 -42q-2 -27 -34 -27q-2 0 -31 2.5t-35 2.5q-137 0 -318.5 -120t-256.5 -196q33 -49 167 -212t232 -263q49 -51 78.5 -69.5t62.5 -18.5q53 0 69.5 -4t16.5 -27q0 -37 -221 -135q-111 -47 -170 -47q-39 0 -145 131q-39 47 -168 211t-160 207 q-121 -129 -279.5 -363.5t-226.5 -382.5q-37 -78 -53 -77q-18 0 -28.5 13t-49.5 83q-59 115 -61 133z" />
<glyph unicode="Y" horiz-adv-x="1593" d="M-35 1153q0 25 25.5 31t91.5 6q111 0 255 -24.5t168.5 -51.5t184.5 -364q2 -2 207 -488q4 6 36 47t59.5 76t35.5 47q262 391 262 658q0 51 -18 100q-18 55 -19 57q0 25 29 25q45 0 158.5 -99.5t113.5 -162.5q0 -76 -223 -379q-139 -193 -481 -576q-178 -205 -178 -219 q0 -20 47 -20q240 0 522 49q111 25 127 24q29 0 29 -24.5t-11.5 -38.5t-21.5 -18.5t-33 -10.5q-195 -53 -518.5 -125.5t-411.5 -72.5q-41 0 -59 30q-6 12 -23.5 50t-17.5 49q0 23 39 43q184 98 313 235q-66 188 -261 576.5t-259 455.5q-35 35 -123 72q-45 20 -45 43z" />
<glyph unicode="Z" horiz-adv-x="1744" d="M43 117q0 29 15.5 44t91.5 54q434 238 565 344q-94 41 -112.5 53.5t-18.5 36.5q0 31 12 71t31 40q10 0 26 -12q33 -27 181 -103q90 57 221 200.5t131 194.5q0 18 -21 23q-45 10 -127 10q-266 0 -602 -106q-16 -6 -85.5 -33t-130 -49.5t-68.5 -22.5q-12 0 -19.5 8.5 t-7.5 16.5q0 27 51 124t100 126q29 16 173.5 35.5t312.5 19.5q420 0 700 -72q39 -10 63.5 -20t49 -41t24.5 -78q0 -59 -58 -111.5t-181 -130.5q-201 -123 -326 -184q27 -10 79 -28.5t63 -22.5q35 -10 34 -25q0 -6 -3 -15t-13 -20.5t-25 -11.5q-27 0 -117.5 19.5t-146.5 37.5 q-18 -8 -102 -51t-177.5 -90t-105.5 -53q-102 -51 -102 -74q0 -25 127 -35q231 -23 450 -22q324 0 557 37q4 0 51.5 9t57.5 9q27 0 27 -24q0 -66 -84 -91q-31 -10 -187.5 -43.5t-449.5 -73.5t-539 -40q-233 0 -291 28q-33 16 -63.5 55.5t-30.5 86.5z" />
<glyph unicode="[" horiz-adv-x="681" d="M227 -219v1395q0 35 8.5 43t49.5 8h391v-123h-232v-1249h232v-123h-404q-23 0 -32 6t-11 14.5t-2 28.5z" />
<glyph unicode="\" horiz-adv-x="606" d="M14 1217q0 12 34 40.5t46 28.5q14 0 33 -51q14 -43 187 -516t218 -588q59 -154 60 -158q0 -14 -18.5 -32.5t-37 -29.5t-22.5 -11q-14 0 -22 20q-12 27 -134 369q-186 530 -319 856q-25 45 -25 72z" />
<glyph unicode="]" horiz-adv-x="681" d="M6 -145h232v1249h-232v123h404q23 0 32 -6.5t11 -14.5t2 -28v-1395q0 -35 -8.5 -43t-49.5 -8h-391v123z" />
<glyph unicode="^" horiz-adv-x="1228" d="M152 330l364 747h197l364 -747h-198l-265 538l-264 -538h-198z" />
<glyph unicode="_" horiz-adv-x="1024" d="M0 -154h1024v-102h-1024v102z" />
<glyph unicode="`" d="M4 1196q-6 37 48 92t79 55q14 0 22.5 -13t39.5 -85q29 -68 139 -229q14 -25 14 -33q0 -10 -9 -20.5t-24 -10.5q-18 0 -123 68q-174 108 -186 176z" />
<glyph unicode="a" horiz-adv-x="909" d="M43 279q0 223 151.5 410.5t299.5 187.5q33 0 56 -11.5t35.5 -34t17.5 -36t9 -35.5l125 37q20 8 37 8q25 0 25 -27l-4 -67q0 -10 -3.5 -59.5t-3.5 -71.5q0 -145 16.5 -292t37.5 -163q4 -2 21.5 -6t19.5 -4q14 -4 14 -21q0 -27 -104.5 -85t-139.5 -58q-10 0 -16 2 t-16.5 18.5t-16.5 46.5q-18 90 -24 279q-18 -53 -35 -88t-54.5 -94.5t-96 -92t-130.5 -32.5q-102 0 -161.5 78t-59.5 211zM297 272q0 -145 70 -145q55 0 109 106.5t77 260.5q10 66 10 118q0 160 -106 160q-82 0 -117 -125q-43 -160 -43 -375z" />
<glyph unicode="b" horiz-adv-x="872" d="M63 1303q0 27 33 26q31 0 102.5 -18.5t100.5 -30.5q39 -16 39 -47q0 -8 -3 -41t-7 -69t-4 -44q-12 -111 -21 -274q-10 -188 -12 -209q23 55 40 88t53 82t85 74.5t111 25.5q76 0 128 -32.5t75.5 -85t32.5 -100.5t9 -97q0 -246 -151.5 -411t-337.5 -165q-133 0 -203 86 q-59 72 -59 213q0 14 8 338t8 385q0 193 -12 246q0 2 -7.5 28t-7.5 32zM313 281q0 -199 117 -199q63 0 92 61q51 113 51 322q0 133 -10 188q-14 72 -71 72q-80 0 -129.5 -150.5t-49.5 -293.5z" />
<glyph unicode="c" horiz-adv-x="757" d="M66 322q0 238 147 391t326 153q53 0 116.5 -17.5t63.5 -55.5q0 -37 -28.5 -133.5t-72.5 -96.5q-23 0 -29.5 14.5t-15.5 65.5q-8 39 -16 63.5t-32.5 46t-63.5 21.5q-68 0 -101.5 -83t-33.5 -285q0 -154 24.5 -224.5t98.5 -70.5q63 0 108 36.5t119 124.5q27 27 43 27 q14 0 26.5 -12.5t12.5 -26.5q0 -16 -32 -61t-82 -97.5t-129 -91.5t-159 -39q-145 0 -217.5 96.5t-72.5 254.5z" />
<glyph unicode="d" horiz-adv-x="909" d="M57 274q0 207 139.5 410t280.5 203q90 0 117 -82q1 41 1 79q0 227 -22 345q0 4 -4 21.5t-7 33.5t-3 21q0 25 31 24q29 0 120 -20.5t109 -34.5q14 -12 15 -31q0 -55 -11 -178q-20 -500 -20 -668q0 -238 4 -336l2 -84q0 -29 -27 -28q-29 0 -170 51q-43 18 -43 53 q0 14 2 61.5t4 90.5l3 41q-117 -254 -299 -254q-94 0 -158 72.5t-64 209.5zM313 305q0 -100 17.5 -135t50.5 -35q68 0 134.5 160t66.5 313q0 166 -111 166q-88 0 -117 -112q-41 -164 -41 -357z" />
<glyph unicode="e" horiz-adv-x="796" d="M43 305q0 135 47 248t122 181.5t160 105.5t165 37q205 0 204 -254q0 -31 -10 -44.5t-65 -50.5q-12 -8 -65.5 -42.5t-100.5 -65.5t-62 -41q-106 -72 -139 -86q0 -31 1 -47.5t6 -47t17.5 -47t36 -29.5t58.5 -13q115 0 274 172q39 41 51 41q20 0 31.5 -13.5t11.5 -29.5 q0 -20 -67 -95q-109 -113 -193 -162t-188 -49q-147 0 -227 99q-68 83 -68 233zM299 379l58 39q46 31 87 57.5t45 28.5q1 52 2 92q0 20 -1 38q-1 52 -7 85t-20 46t-41 13q-68 0 -96 -104q-17 -64 -27 -295z" />
<glyph unicode="f" horiz-adv-x="569" d="M-16 815q0 25 24 25q6 0 62.5 -7.5t66.5 -7.5q0 10 -2 59.5t-2 57.5q0 74 15.5 117t78.5 121q53 63 138.5 105t185.5 42q88 0 116.5 -17.5t28.5 -52.5q0 -70 -24 -147q-12 -37 -47 -37q-33 0 -70 86q-37 78 -80 78q-57 0 -72 -98q-14 -92 -22 -328q16 -2 57 -2 q102 10 129 10q39 0 39 -33q0 -20 -11 -31.5t-46 -23.5q-66 -25 -168 -35q-2 -51 -15.5 -306t-13.5 -296q-10 -342 -10 -430q0 -47 -23 -59q-29 -16 -77.5 -32.5t-63.5 -16.5q-27 0 -26 30q0 12 3 69.5t3 68.5q4 221 4 413q0 291 -15 543q-19 -1 -35 -1q-41 0 -63 7 q-16 6 -40.5 51t-24.5 78z" />
<glyph unicode="g" horiz-adv-x="872" d="M35 279q0 238 152.5 416.5t285.5 178.5q35 0 60.5 -12t39 -35.5t17.5 -36t10 -34.5q20 6 53 15t58.5 17.5t27.5 8.5q20 6 29 6q27 0 27 -35q0 -29 -11 -152q0 -20 -3 -144t-7 -227.5t-10 -212t-12 -143.5q-18 -98 -71.5 -169.5t-120 -104.5t-122 -47t-104.5 -14 q-123 0 -205 56t-82 122q0 47 64.5 105.5t99.5 58.5q31 0 31 -33q0 -4 -3 -42t-3 -46q0 -76 39.5 -105.5t89.5 -29.5q135 0 153 157q4 37 9 212t8 198q-98 -217 -271 -217q-33 0 -65.5 10t-72.5 36.5t-65.5 89.5t-25.5 153zM291 301q0 -84 13 -129t58 -45q70 0 127.5 166 t57.5 278q0 49 -2 74t-10.5 59.5t-31 50t-57.5 15.5q-66 0 -100 -76q-55 -121 -55 -393z" />
<glyph unicode="h" horiz-adv-x="909" d="M86 82l14 213q27 399 27 768q0 113 -12 168q-20 51 -21 69q0 29 35 29q68 0 164 -29q39 -12 57.5 -22t21.5 -17.5t3 -21.5q0 -4 -10.5 -150.5t-21.5 -307t-13 -185.5q-8 -92 -8 -158q63 203 161 330q84 100 181 100q39 0 62.5 -13t34.5 -50t15 -68.5t6 -101.5 q23 -444 58 -492q6 -8 41 -12q23 -8 22 -18q0 -20 -43 -52q-170 -106 -209 -106q-37 0 -47 39t-22 188q-31 379 -35 404q-12 41 -31 41q-35 0 -92 -125t-78 -258q-10 -70 -22 -213q-2 -31 -31 -31q-90 0 -187 41q-22 10 -20 41z" />
<glyph unicode="i" d="M66 836q0 31 38 30q27 0 106 -15t118 -40q27 -17 26 -43q0 -116 -7 -301t-7 -252q0 -14 2 -96t2 -94q0 -49 -29 -50q-37 0 -176 45q-39 12 -39 35q0 6 4.5 75t4.5 79q2 25 2 119q0 186 -4.5 283.5t-9.5 125t-15 54.5q-16 37 -16 45zM96 1061v115q-2 33 -2 55q0 28 3 41 q5 23 34 22q20 0 88 -18.5t98 -32.5q23 -10 23 -57v-103q0 -6 1 -32.5t1 -43.5v-28q-2 -18 -27 -18q-27 0 -157 45q-41 14 -51.5 22t-10.5 33z" />
<glyph unicode="j" d="M-162 -373q0 39 23.5 115t60.5 76q16 0 24.5 -10.5t33.5 -49.5q29 -51 57 -51q35 0 46 44t15 169q6 150 8 414q0 33 1 64q0 219 -13 350q-2 4 -10 28.5t-14.5 45t-3.5 26.5q6 20 45 20q43 0 129 -26.5t98 -36.5q16 -12 16 -35q-8 -119 -12 -500q-4 -223 -26.5 -322.5 t-116.5 -213.5q-154 -180 -279 -180q-82 -1 -82 73zM94 1262q0 33 35 32q25 0 98.5 -20.5t96.5 -34.5q16 -10 16 -43l-2 -68q0 -37 4 -129q0 -39 -25 -38q-4 0 -52 12t-101 30.5t-62 30.5q-8 11 -8 228z" />
<glyph unicode="k" horiz-adv-x="909" d="M94 80q0 10 4 81.5t8.5 151.5t4.5 101q16 393 16 655q0 78 -12 145q0 6 -10.5 42t-10.5 42q0 31 39 31q66 0 209 -49q43 -14 39 -51l-16 -219q-20 -283 -29 -635q322 338 326 483q0 23 1 30t4 17t8 13.5t15 3.5q27 0 74 -79t47 -104q0 -16 -9 -28.5t-54 -59.5 q-117 -121 -150 -147q125 -225 169 -294t81 -79l47 -12q6 -4 6 -15q0 -31 -102.5 -90t-128.5 -59q-25 0 -62 57q-98 154 -186 340q-6 -6 -43 -38.5t-43 -39.5v-249q0 -29 -33 -29q-63 0 -176 41q-33 10 -33 43z" />
<glyph unicode="l" d="M82 1305q0 27 37 26q23 0 97.5 -15.5t123.5 -35.5q31 -12 31 -41q0 -220 -15.5 -581.5t-15.5 -501.5q0 -57 6 -129q2 -10 2 -19q0 -31 -26 -31q-53 0 -197 60q-29 10 -29 45q0 84 10 289q8 281 9 620q0 178 -13 234q0 6 -10 40t-10 40z" />
<glyph unicode="m" horiz-adv-x="1327" d="M66 842q0 27 40 26q35 0 119 -18.5t105 -30.5q25 -16 24 -49q0 -4 -8 -82t-17.5 -165t-11.5 -111q152 408 345 407q115 0 114 -137q0 -43 -20 -227q27 72 42 108.5t50 104t65.5 103.5t75.5 65.5t94 29.5q37 0 60.5 -14t34 -45t13.5 -55.5t5 -69.5q14 -301 39 -473 q6 -45 13 -58.5t32 -17.5q27 -4 34 -7t7 -15q0 -18 -35 -43q-180 -115 -219 -115q-37 0 -48 56.5t-30 340.5q-14 201 -22 238q-8 31 -27 30q-25 0 -61.5 -63t-71.5 -189t-43 -272q-2 -37 -3 -53t-5 -28.5t-9.5 -14.5t-17.5 -2q-37 0 -166 43q-31 10 -31 43q0 88 9 203 q4 121 4 239v35q0 10 -3 23.5t-8.5 17.5t-13.5 4q-41 0 -107.5 -151.5t-80.5 -296.5q0 -6 -3 -40t-5 -62.5t-5 -35.5q-6 -18 -28 -18q-43 0 -144 27q-63 18 -63 47q0 27 12 137q14 186 15 321q0 141 -17 228q0 4 -14 40t-14 42z" />
<glyph unicode="n" horiz-adv-x="909" d="M68 842q0 29 36 28q31 0 117 -17t109 -34q23 -14 22 -49q0 -6 -6 -76.5t-13 -153.5t-9 -104q57 182 149 314q82 117 189 116q78 0 98 -51t26 -194q14 -272 29.5 -378t42.5 -108q45 -6 45 -26q0 -23 -37 -50q-168 -100 -209 -100q-37 0 -48 37t-25 194q-6 70 -11 113 q0 2 -5 62.5t-11 128t-12 94.5q-4 33 -29 33q-45 0 -86 -101.5t-63 -191.5q-12 -45 -22.5 -117t-15.5 -120t-5 -56q0 -35 -33 -35q-66 0 -176 37q-29 10 -29 33q0 6 9 103t9 114q0 2 3.5 105.5t3.5 174.5q0 135 -21 203q0 6 -11 36t-11 36z" />
<glyph unicode="o" horiz-adv-x="872" d="M45 371q0 203 120 347t316 144q168 0 257 -115.5t89 -291.5q0 -193 -114.5 -337.5t-315.5 -144.5q-98 0 -169.5 37t-109.5 98.5t-55.5 127t-17.5 135.5zM311 344q0 -61 3 -100t13.5 -90.5t37 -78t67.5 -26.5q68 0 98.5 82t30.5 313q0 195 -27.5 268.5t-93.5 73.5 q-80 0 -104.5 -97t-24.5 -345z" />
<glyph unicode="p" horiz-adv-x="909" d="M63 856q0 25 33 25q59 0 207 -72q29 -16 29 -43l-10 -205q145 307 335 307q57 0 100.5 -27.5t63 -62.5t30.5 -86t12 -74.5t1 -52.5q0 -289 -184 -473q-119 -121 -231 -121q-39 0 -59.5 12.5t-24 23.5t-3.5 28q0 37 14.5 97.5t39.5 60.5q12 0 35 -33q6 -8 10 -15 q35 -55 69 -55q86 0 86 373q0 143 -13 200.5t-52 57.5q-41 0 -89 -64.5t-79 -144.5q-61 -158 -61 -506q0 -57 6 -220t6 -179v-25q0 -33 -31 -33q-6 0 -41 7.5t-83 20.5t-73 26q-20 10 -20 39q0 14 3 92t3 90q8 270 8 549q0 274 -16 385q-21 71 -21 98z" />
<glyph unicode="q" horiz-adv-x="909" d="M49 256q0 248 154.5 436.5t304.5 188.5q111 0 133 -125q2 0 42 14t78 25.5t46 11.5q25 0 24 -29q0 -16 -3 -69.5t-8 -109.5t-5 -67q-10 -240 -10 -497q0 -205 10 -393q0 -6 3 -31t3 -29q0 -31 -26 -31q-41 0 -168 52q-57 25 -64 37q-2 6 -2 20q0 20 5 158.5t10.5 289 t5.5 177.5q-76 -141 -174 -240q-76 -76 -164 -76q-90 0 -142.5 75t-52.5 212zM303 324q0 -92 15.5 -128t50.5 -36q37 0 87 63.5t89 174t39 220.5q0 152 -107 152q-98 0 -137 -121q-37 -118 -37 -325z" />
<glyph unicode="r" horiz-adv-x="757" d="M61 840q0 25 41 24q37 0 117 -19.5t105 -33.5q23 -14 22 -35q0 -78 -22 -370q16 49 69 176q47 106 51 116q-4 20 -4 31q0 35 10.5 59.5t19.5 31.5l28 22q90 57 131 57q31 0 30 -41q0 -6 -2 -40t-2 -40q0 -152 62 -241q2 -2 16.5 -17.5t25.5 -29t11 -19.5q0 -29 -90 -29 q-88 0 -125 30t-76 114q-137 -301 -139 -512q0 -51 -5 -65.5t-26 -14.5q-10 0 -71.5 14.5t-87.5 22.5q-35 12 -44.5 20t-9.5 25q0 12 6 80q6 190 7 266q0 250 -23 340q-25 74 -25 78z" />
<glyph unicode="s" horiz-adv-x="720" d="M55 102q0 37 35 113t74 76q27 0 36 -18.5t19 -79.5q20 -131 135 -132q43 0 80 27t37 76q0 45 -30.5 73.5t-153.5 102.5q-109 68 -151 115t-42 125q0 129 109.5 208.5t247.5 79.5q43 0 103 -13t73 -30q14 -16 14 -55q0 -37 -18.5 -97.5t-57.5 -60.5q-23 0 -31 12.5 t-20 49.5q-35 106 -123 106q-41 0 -69.5 -24.5t-28.5 -59.5q0 -41 33.5 -70.5t183.5 -121.5q84 -51 126 -98.5t42 -122.5q0 -137 -112.5 -223.5t-254.5 -86.5q-96 0 -176 43t-80 86z" />
<glyph unicode="t" horiz-adv-x="569" d="M-14 815q0 27 28 27q20 0 58 -8q8 -2 75 -9q0 25 -4 110t-9 163t-5 82q0 35 31 34q61 0 196 -45q23 -6 28 -18t5 -41q0 -18 -6 -145q-5 -95 -5 -132q0 -12 1 -18q14 0 87 3t85 3q35 0 35 -30q0 -27 -23.5 -40.5t-101.5 -35.5q-4 -2 -80 -17q-6 -117 -6 -352 q0 -123 1 -201.5t2 -107.5t1 -31q0 -37 -29 -37q-49 0 -143 31q-51 16 -63.5 27.5t-12.5 33.5q0 8 4 71t4 75q8 193 8 317v156l-73 2q-33 8 -47 29q-12 16 -26.5 53t-14.5 51z" />
<glyph unicode="u" horiz-adv-x="909" d="M78 215q0 51 20 291q8 86 8 182q0 57 -10 103l-12 51q0 25 39 24q25 0 90.5 -13t116.5 -36q29 -12 28 -39l-16 -131q-37 -309 -37 -379q0 -86 62 -86q66 0 133 145.5t67 295.5q0 12 -2 78.5t-2 76.5q0 29 17 37q61 31 168 31q25 0 35 -1t17 -6t7 -18q0 -16 -8 -49 q-8 -70 -8 -197q0 -133 15 -278t38 -160q4 -2 24 -6l23 -6q14 -6 14 -21q0 -37 -213 -143q-16 -6 -24 -6q-41 0 -52 59q-16 80 -26 336q-61 -168 -158 -270q-78 -84 -174 -84q-98 0 -139 64.5t-41 154.5z" />
<glyph unicode="v" horiz-adv-x="757" d="M-12 817q0 31 43 31q49 0 156.5 -21.5t121.5 -40.5q6 -8 12.5 -31.5t20.5 -94t37 -152.5q0 -4 61 -211q6 -25 17 -25q8 0 22 31q47 109 64.5 172.5t17.5 157.5q0 78 -18 160q-14 43 -15 65q0 33 35 33q27 0 102.5 -58.5t75.5 -95.5q0 -55 -127 -340q-113 -248 -184 -352 q-47 -72 -84 -72q-33 0 -49 27t-39 90q-14 39 -63.5 200t-93.5 298t-50 149.5t-17 23.5t-23.5 19t-14.5 11q-8 10 -8 26z" />
<glyph unicode="w" horiz-adv-x="1138" d="M-4 815q0 31 51 31q72 0 169 -23.5t108 -56.5q2 -8 8 -34.5t12 -60.5t6 -38q2 -10 18.5 -94t31 -148.5t18.5 -71.5q4 -8 10 -8q12 0 25 35q53 168 110 402q8 29 27 28q12 0 69.5 -13t67.5 -30q16 -31 23 -80q37 -141 79 -284q18 -63 26.5 -63.5t29.5 44.5q66 141 65 285 q0 68 -16 141.5t-16 81.5q0 31 32 31q31 0 105.5 -57.5t74.5 -96.5t-86 -240.5t-147 -318.5q-49 -94 -80 -140t-43 -54.5t-31 -8.5q-39 0 -61 62q-39 117 -115 399q-12 -51 -58 -169t-67 -161q-49 -100 -77 -118q-14 -10 -33 -11q-35 0 -51.5 28t-42.5 108q-20 61 -80 275 t-68 253q-23 98 -61 133q-33 29 -33 43z" />
<glyph unicode="x" horiz-adv-x="796" d="M4 -80q0 14 69.5 126t98.5 153q63 90 104 151q-131 317 -215 410q-31 33 -37 42t-6 25q0 25 29 25q31 0 160 -28.5t147 -59.5l86 -201q18 31 91 130.5t92 121.5q39 45 55 45q18 0 56 -51t38 -74q0 -8 -7 -13t-46 -28q-80 -45 -128 -85t-118 -117q8 -16 42 -91 t65.5 -141.5t42.5 -85.5q31 -53 51 -74.5t61 -46.5q16 -10 17 -24q0 -23 -97.5 -43.5t-140.5 -20.5q-33 0 -49 13.5t-37 50.5q-43 76 -113 241q-98 -172 -165 -434q-12 -47 -23 -47q-14 0 -68.5 55.5t-54.5 75.5z" />
<glyph unicode="y" horiz-adv-x="757" d="M-14 817q0 29 69 29q66 0 152 -22.5t98 -49.5q6 -10 14.5 -42t16.5 -68.5t10 -40.5q66 -242 113 -375q41 96 60.5 143t35.5 120t16 144q0 63 -14 121q-16 68 -16 78q0 16 8 25.5t13 10.5t9 1q27 0 91 -51q43 -33 62 -53.5t23.5 -28.5t4.5 -19q0 -8 -15.5 -59t-79 -196.5 t-157.5 -323.5q-90 -168 -119 -236.5t-29 -134.5q0 -78 43 -154q16 -33 17 -43q0 -43 -33 -43q-41 0 -123 60q-45 31 -59.5 51.5t-14.5 50.5q0 57 119 254q-14 41 -166 502l-59 182q-35 102 -53 119q-37 33 -37 49z" />
<glyph unicode="z" horiz-adv-x="796" d="M41 29q0 8 21.5 37.5t51 66.5t31.5 41q55 80 178 275.5t156 246.5q-143 -57 -193 -73.5t-91 -16.5q-53 0 -76 41q-68 127 -68 201q0 16 11.5 25.5t23.5 9.5t37 -23q78 -74 395 -74q14 0 19.5 7.5t23.5 40.5q14 25 33 24q35 0 86 -71.5t51 -108.5q0 -35 -72 -107 q-354 -342 -376 -368q-16 -20 -17 -27q0 -18 43 -20q106 -8 199 -9q20 0 112.5 4.5t94.5 4.5q55 0 55 -37q0 -25 -24.5 -41.5t-79.5 -36.5q-197 -80 -537 -80q-41 0 -59 14q-29 29 -29 54z" />
<glyph unicode="{" horiz-adv-x="681" d="M47 479q90 23 124 73t34 134v291q0 152 82 201t284 49v-39q-82 -16 -115.5 -67.5t-33.5 -147.5v-262q0 -94 -34 -152.5t-132 -79.5q98 -20 132 -78.5t34 -152.5v-262q0 -96 33.5 -147.5t115.5 -67.5v-39q-203 0 -284.5 49t-81.5 201v290q0 84 -34 134t-124 73z" />
<glyph unicode="|" d="M129 -438v2048h197v-2048h-197z" />
<glyph unicode="}" horiz-adv-x="681" d="M111 -229q82 16 115.5 67t33.5 148v262q0 94 34 152.5t132 78.5q-98 20 -132 78.5t-34 153.5v262q0 96 -33.5 147t-115.5 68v39q203 0 284.5 -49.5t81.5 -200.5v-291q0 -84 34 -134t124 -73q-90 -23 -124 -73t-34 -134v-290q0 -152 -82 -201t-284 -49v39z" />
<glyph unicode="~" horiz-adv-x="1228" d="M141 512q92 176 256 176q80 0 228 -65q16 -6 55 -24.5t58.5 -27t48 -16.5t47.5 -8q39 0 74.5 25.5t54 50t51.5 73.5l73 -172q-39 -55 -66.5 -85.5t-78.5 -59.5t-111 -29q-88 0 -208 66q-135 76 -236 76q-102 0 -172 -152z" />
<glyph unicode="&#xa1;" horiz-adv-x="569" d="M121 -227q0 27 6 109.5t14.5 173.5t10.5 108q6 115 6 270q0 53 3 64.5t23 11.5q16 0 97 -16.5t102 -24.5q25 -10 25 -49l-2 -82q-4 -127 -5 -207q0 -272 23 -389q0 -4 4 -18.5t7 -28.5t3 -19q0 -25 -32 -24q-41 0 -137.5 28.5t-125.5 45.5q-22 12 -22 47zM156 758 q0 72 6 90t26 18q27 0 115 -23.5t100 -43.5q8 -12 9 -140q0 -55 -5.5 -70.5t-26 -15.5t-110.5 25t-102 39.5t-12 120.5z" />
<glyph unicode="&#xa2;" horiz-adv-x="872" d="M86 327.5q0 196.5 130 358.5t327 180l14 76q8 47 23 55q25 16 49 17q12 0 12 -17q0 -14 -6 -32l-21 -99q76 -8 125 -26q37 -14 37 -41q0 -37 -45 -176q-16 -57 -53 -57.5t-41 55.5q0 90 -47 127l-131 -635q27 0 52.5 -1t70.5 24.5t98 78.5q41 49 70 78q8 8 24 8 q39 0 39 -41q0 -49 -154 -186q-106 -86 -227 -101l-18 -84q-10 -49 -29 -59q-25 -14 -45 -14q-12 0 -12 14q0 4 8 45l20 98q-96 10 -153 60q-117 98 -117 294.5zM338 375q0 -164 53 -236l133 635q-68 4 -110 -47q-76 -94 -76 -352z" />
<glyph unicode="&#xa3;" horiz-adv-x="1024" d="M68 657q0 20 24 21q12 0 67.5 -10.5t57.5 -10.5q-27 121 -27 199q0 115 88.5 200t194 120.5t197.5 35.5q41 0 81 -7t91 -26.5t82.5 -64.5t31.5 -113q0 -43 -28 -67q-29 -27 -82 -57.5t-71.5 -30.5t-21.5 12t-3 78q0 184 -138 184q-23 0 -46 -7t-53 -24.5t-48.5 -58.5 t-18.5 -100q0 -37 13.5 -144.5t21.5 -142.5q172 2 209 4q8 0 51 3t47 3q25 0 25 -20q0 -35 -61 -53q-139 -37 -258 -45q6 -31 6 -56q0 -72 -47 -134t-154 -155q160 -23 381 -22q135 0 262 14q37 4 47 4q18 0 19 -16q0 -4 -4.5 -16.5t-19.5 -32t-36 -31.5 q-43 -27 -241.5 -67.5t-350.5 -40.5q-119 0 -150.5 9t-55.5 46q-80 111 -80 145q0 31 32 31q6 0 41 -4t41 -4q23 0 56.5 48t33.5 95q0 53 -26 172q-92 0 -115 17q-12 8 -38.5 57t-26.5 63z" />
<glyph unicode="&#xa4;" horiz-adv-x="1228" d="M90 98l115 115q-98 133 -99 299q0 164 99 299l-115 115l111 112l114 -116q131 98 299 98q166 0 297 -98l117 116l111 -112l-115 -115q98 -131 98 -299q0 -164 -98 -299l115 -115l-111 -112l-117 116q-129 -98 -297 -98q-166 0 -297 98l-116 -116zM303 512 q0 -137 91 -230.5t220 -93.5t220.5 93.5t91.5 230.5t-91.5 230.5t-220.5 93.5t-220 -93.5t-91 -230.5z" />
<glyph unicode="&#xa5;" horiz-adv-x="1091" d="M-61 1151q0 39 96 39q109 0 201 -20.5t120 -39.5q33 -20 76 -184l109 -409h153q51 143 62 180q63 205 63 368q0 57 -16 113q-12 25 -12 47q0 27 22 27q33 0 125 -97.5t92 -162.5q0 -39 -84 -219q-88 -188 -129 -256h105q49 0 49 -39q0 -57 -53 -58h-150 q-31 -66 -111 -215h256q25 0 34 -2t16.5 -11t7.5 -30q0 -55 -58 -55h-309q-100 -201 -174 -367q-35 -84 -69.5 -115.5t-118.5 -31.5q-63 0 -110.5 21.5t-47.5 50.5q0 27 41 36q45 10 85 37t78 73t62.5 82t63.5 99l-33 115h-246q-18 0 -27.5 1t-17.5 10t-8 26q0 61 61 61h209 l-65 215h-152q-20 0 -29.5 1t-17.5 9.5t-8 26.5q0 25 17.5 42.5t45.5 17.5h115l-88 290q-66 217 -152 263q-55 29 -67 38t-12 23zM561 440l33 -143q35 68 70 143h-103z" />
<glyph unicode="&#xa6;" d="M129 -182v512h197v-512h-197zM129 842v512h197v-512h-197z" />
<glyph unicode="&#xa7;" horiz-adv-x="1062" d="M74 434q0 63 33.5 117.5t88 89.5t93.5 53.5t78 30.5q-90 35 -141.5 84t-51.5 137q0 121 120 208t324 87q96 0 175 -21.5t112 -54.5q18 -20 19 -51q0 -47 -20.5 -118.5t-57.5 -71.5q-18 0 -24.5 10t-20.5 59q-49 160 -207 160q-76 0 -120 -39t-44 -98q0 -63 47 -99 t162 -81q147 -59 197.5 -84t85.5 -56q70 -66 69 -164q0 -70 -30.5 -124t-86 -90.5t-87 -52t-78.5 -34.5q125 -10 190 -67q57 -49 57 -125q0 -141 -143 -226t-342 -85q-147 0 -261 51t-114 123q0 49 56 143q37 59 63 59q16 0 22.5 -11t12.5 -48q2 -10 2 -14q37 -215 237 -215 q106 0 156.5 58t50.5 132q0 18 -4 36.5t-16 52.5t-50 55.5t-94 21.5q-94 0 -142 2t-112.5 19.5t-109.5 52.5q-94 73 -94 188zM338 471q0 -90 50 -150.5t147 -60.5q90 0 146 54.5t56 134.5q0 113 -110 163q-98 45 -170 68q-119 -66 -119 -209z" />
<glyph unicode="&#xa8;" d="M-37 1190q0 63 4 76.5t23 13.5q8 0 84 -12.5t84 -18.5q20 -12 23 -32.5t3 -114.5q0 -86 -5 -103.5t-29 -17.5q-18 0 -88 14.5t-85 26.5q-14 14 -14 168zM268 1229q0 18 1 27.5t8.5 17.5t23.5 8q14 0 88 -13.5t86 -23.5q16 -14 17 -135q0 -94 -5.5 -112.5t-29.5 -18.5 q-12 0 -76 13.5t-78 19.5q-31 12 -31 45q0 23 -2 85t-2 87z" />
<glyph unicode="&#xa9;" horiz-adv-x="1363" d="M72 586q0 254 179 432t431 178t431 -178t179 -432q0 -252 -179 -431.5t-431 -179.5t-431 179.5t-179 431.5zM211 585.5q0 -198.5 142.5 -344t328.5 -145.5t328.5 145.5t142.5 344t-141.5 345t-329.5 146.5t-329.5 -146.5t-141.5 -345zM340 594q0 57 20.5 113.5 t63.5 106.5t121 82t180 32q92 0 178 -29q43 -14 43 -39v-135h-49q-39 154 -176 154q-90 0 -141.5 -77t-51.5 -200q0 -135 48.5 -220t152.5 -85q137 0 197 158h49l-27 -140q-6 -25 -47 -36q-100 -31 -201 -31q-170 0 -265 95t-95 251z" />
<glyph unicode="&#xaa;" horiz-adv-x="591" d="M29 809q0 133 98 245.5t195 112.5q61 0 75 -69l82 20q8 6 24.5 6t16.5 -16l-4 -41q-4 -57 -4 -78q0 -88 11.5 -175t23.5 -97q6 -6 26 -6q10 -4 11 -13q0 -16 -69 -51t-91.5 -35t-30.5 39q-8 43 -16 168q-14 -33 -23.5 -52t-34 -56t-62.5 -56.5t-85 -19.5q-66 0 -104.5 46 t-38.5 128zM193 805q0 -88 45 -88q37 0 72.5 64.5t49.5 156.5q6 33 7 70q0 96 -70 96q-55 0 -76 -74q-28 -98 -28 -225z" />
<glyph unicode="&#xab;" horiz-adv-x="833" d="M51 430l320 342l86 -80l-246 -262l231 -262l-90 -78zM352 430l322 344l84 -80l-248 -264l233 -260l-90 -80z" />
<glyph unicode="&#xac;" horiz-adv-x="1228" d="M96 629v196h1037v-614h-197v418h-840z" />
<glyph unicode="&#xad;" horiz-adv-x="833" d="M66 547q0 18 16 18q31 0 61 -6q178 -18 475 -18h87q10 -4 34 -66q23 -57 23 -63q0 -20 -29 -21q-61 -4 -225 -4q-350 0 -379 16q-10 6 -36.5 69t-26.5 75z" />
<glyph unicode="&#xae;" horiz-adv-x="681" d="M37 891q0 127 89 216t216 89q125 0 214 -89t89 -216t-89 -216t-214 -89q-127 0 -216 89t-89 216zM106 891q0 -100 71 -173t165 -73q92 0 162.5 74t70.5 172t-70.5 172t-162.5 74q-94 0 -165 -73t-71 -173zM193 731v25q27 2 32.5 8t5.5 31v194q0 25 -6 30t-32 7v27h163 q109 0 109 -82q0 -66 -64 -88l58 -99q16 -29 47 -28v-25h-80q-25 0 -49 47l-49 94h-21v-77q0 -25 6 -31t33 -8v-25h-153zM307 897h25q53 0 53 70q0 59 -51 59h-27v-129z" />
<glyph unicode="&#xaf;" d="M-90 1143q0 18 24 18l48 -2q84 -4 256 -4q209 0 221 -4q10 -4 33.5 -46t23.5 -56q0 -12 -8 -14.5t-49 -4.5q-473 0 -482 2q-20 4 -43.5 51.5t-23.5 59.5z" />
<glyph unicode="&#xb0;" horiz-adv-x="819" d="M117 874.5q0 120.5 86 206.5t206.5 86t206.5 -86t86 -206.5t-86 -206.5t-206.5 -86t-206.5 86t-86 206.5zM264 874.5q0 -59.5 43 -102.5t102.5 -43t102.5 43t43 102.5t-43 102.5t-102.5 43t-102.5 -43t-43 -102.5z" />
<glyph unicode="&#xb1;" horiz-adv-x="1228" d="M96 0v197h1037v-197h-1037zM96 547v196h420v293h197v-293h420v-196h-420v-295h-197v295h-420z" />
<glyph unicode="&#xb2;" horiz-adv-x="641" d="M14 569q0 10 33 25q158 70 248 145q131 113 131 277q0 98 -84 98q-39 0 -67.5 -21.5t-41 -52t-17.5 -54t-5 -40.5q0 -27 7 -44t23.5 -25.5t24.5 -10.5t29 -4q14 0 14 -14q0 -16 -39 -28.5t-73 -12.5q-68 0 -108 36t-40 95q0 86 87 157.5t226 71.5q104 0 172 -49t68 -141 t-72.5 -155.5t-257.5 -168.5q-25 -12 -49 -28l-8 -9q0 -4 25 -10q41 -8 161 -8q35 0 179 10q16 2 30 2q12 0 17 -6q2 -8 -19.5 -32.5t-42.5 -30.5q-205 -57 -418 -58q-43 0 -55 4.5t-31 22.5q-47 47 -47 59z" />
<glyph unicode="&#xb3;" horiz-adv-x="616" d="M10 561q0 23 27 23q8 0 18 -11q111 -88 199 -88q49 0 83 25t47 61.5t17.5 62t4.5 48.5q0 125 -121 125q-18 0 -43 -4q-12 -2 -19.5 -3t-10.5 -2t-5 -1q-14 0 -27.5 25.5t-13.5 37.5q0 10 10 10l41 -4q41 -4 49 -4q45 0 74 21.5t39 54.5t13 50.5t3 31.5q0 94 -84 94 q-61 0 -98 -44t-47 -91q-4 -29 -23 -29q-16 0 -26 29q-23 68 -23 92q0 20 33 41q96 55 217 55q104 0 167.5 -34.5t63.5 -104.5q0 -86 -94 -141q-27 -14 -114 -43q45 -4 74.5 -10.5t69.5 -21.5t60.5 -48t20.5 -80q0 -113 -138.5 -189.5t-285.5 -76.5q-47 0 -68 18 q-29 27 -59.5 70t-30.5 55z" />
<glyph unicode="&#xb4;" d="M102 985q0 10 17 33q74 102 102.5 154.5t59.5 132.5q12 41 36.5 41t75.5 -51.5t51 -96.5t-138 -144.5t-171 -99.5t-33 31z" />
<glyph unicode="&#xb5;" horiz-adv-x="909" d="M-8 -311q0 12 20.5 31.5t22.5 41.5q10 98 40.5 487.5t30.5 438.5q0 57 -10 103l-12 51q0 25 39 24q25 0 90.5 -13t116.5 -36q29 -12 28 -39l-16 -131q-37 -309 -37 -379q0 -86 62 -86q66 0 133 145.5t67 295.5q0 12 -2 78.5t-2 76.5q0 29 17 37q61 31 168 31q25 0 35 -1 t17 -6t7 -18q0 -16 -8 -49q-8 -70 -8 -197q0 -133 15 -278t38 -160q4 -2 24 -6l23 -6q14 -2 14 -21q0 -39 -215 -145q-16 -4 -22 -4q-41 0 -52 59q-16 80 -26 336q-61 -168 -158 -270q-78 -84 -174 -84l-45 -397q-2 -23 -21.5 -36.5t-44.5 -13.5q-27 0 -91 51.5t-64 88.5z " />
<glyph unicode="&#xb6;" horiz-adv-x="1228" d="M86 840q0 373 420 372h637v-61h-29q-131 0 -131 -109v-1192q0 -109 131 -108h29v-61h-344v1429h-146v-1429h-344v61h29q131 0 131 108v582q-197 0 -290 97.5t-93 310.5zM283 838q0 -293 186 -293v555q-186 0 -186 -262z" />
<glyph unicode="&#xb7;" horiz-adv-x="606" d="M137 549q0 70 48 118t118 48q68 0 117 -48.5t49 -117.5q0 -68 -49 -116t-117 -48q-70 0 -118 48t-48 116z" />
<glyph unicode="&#xb8;" d="M80 -379q6 4 53 35t55 37q33 23 33 43q0 14 -51 41q-68 25 -68 61q0 18 35 58q8 12 57.5 62t51.5 52h71q-4 -4 -24.5 -27.5t-36.5 -44t-16 -28.5q0 -25 71 -57q66 -25 66 -66q0 -45 -62 -88q-127 -90 -196 -123z" />
<glyph unicode="&#xb9;" horiz-adv-x="569" d="M25 883q0 8 106 80q154 106 275 211q12 10 22 10q18 0 18 -19q0 -12 -5 -39.5t-5 -33.5q-16 -121 -16 -363q0 -68 2 -137.5t2 -102.5v-2q0 -16 -10 -16q-12 0 -70.5 16.5t-79.5 24.5q-23 8 -22 14q0 70 4 115q6 147 14 334q-16 -14 -100 -111q-18 -16 -25 -16 q-12 0 -61 11.5t-49 23.5z" />
<glyph unicode="&#xba;" horiz-adv-x="567" d="M29 872q0 121 77.5 208t206.5 87q111 0 168.5 -69.5t57.5 -175.5q0 -115 -75 -202t-206 -87q-121 0 -175 72.5t-54 166.5zM203 856q0 -37 2 -60.5t8 -54t23.5 -47t44.5 -16.5q43 0 63.5 49t20.5 188q0 117 -17.5 161t-60.5 44q-51 0 -67.5 -58.5t-16.5 -205.5z" />
<glyph unicode="&#xbb;" horiz-adv-x="833" d="M74 172l248 262l-232 262l90 78l301 -340l-323 -344zM375 172l248 262l-232 262l90 78l301 -340l-321 -344z" />
<glyph unicode="&#xbc;" horiz-adv-x="1638" d="M25 883q0 8 106 80q154 106 275 211q12 10 22 10q18 0 18 -19q0 -12 -5 -39.5t-5 -33.5q-16 -121 -16 -363q0 -68 2 -137.5t2 -102.5v-2q0 -16 -10 -16q-12 0 -70.5 16.5t-79.5 24.5q-23 8 -22 14q0 70 4 115q6 147 14 334q-16 -14 -100 -111q-18 -16 -25 -16 q-12 0 -61 11.5t-49 23.5zM453 24.5q0 16.5 75 168.5q236 498 383 831q57 143 78 174q8 12 19 12q14 0 39.5 -31.5t25.5 -50.5q0 -16 -15.5 -50t-33.5 -66l-18 -33q-20 -33 -146.5 -302t-146.5 -319q-35 -80 -82 -186t-90 -205q-12 -33 -25 -33q-14 0 -38.5 37t-24.5 53.5z M1032 229q0 12 15 33q100 160 163 387q8 27 11.5 32t13.5 5t29.5 -21.5t29.5 -39.5q41 -57 41 -74q0 -23 -101 -158t-101 -137q0 -8 22 -10q72 -14 186 -15q0 12 2.5 81t2.5 79v76q0 10 18 10q37 0 125 -47q25 -10 29 -14t4 -19q0 -29 -11 -69q-4 -86 -4 -101q12 -4 35 0 q8 0 42 4.5t40 4.5q14 0 14 -10.5t-19.5 -33t-29.5 -28.5q-4 -2 -41 -7t-41 -5q-6 -100 0 -166q4 -31 -14 -31q-12 0 -69.5 16.5t-77.5 24.5q-16 8 -17 20q0 20 8 58q0 12 2 39.5t2 29.5q-16 -4 -180 -4l-53 2q-16 0 -27 13q-49 65 -49 75z" />
<glyph unicode="&#xbd;" horiz-adv-x="1638" d="M25 883q0 8 106 80q154 106 275 211q12 10 22 10q18 0 18 -19q0 -12 -5 -39.5t-5 -33.5q-16 -121 -16 -363q0 -68 2 -137.5t2 -102.5v-2q0 -16 -10 -16q-12 0 -70.5 16.5t-79.5 24.5q-23 8 -22 14q0 70 4 115q6 147 14 334q-16 -14 -100 -111q-18 -16 -25 -16 q-12 0 -61 11.5t-49 23.5zM453 24.5q0 16.5 75 168.5q236 498 383 831q57 143 78 174q8 12 19 12q14 0 39.5 -31.5t25.5 -50.5q0 -16 -15.5 -50t-33.5 -66l-18 -33q-20 -33 -146.5 -302t-146.5 -319q-35 -80 -82 -186t-90 -205q-12 -33 -25 -33q-14 0 -38.5 37t-24.5 53.5z M963 61q0 10 32 25q158 70 248 145q131 113 131 277q0 98 -84 98q-39 0 -67.5 -21.5t-41 -52t-17.5 -54t-5 -40.5q0 -27 7.5 -44t23.5 -25.5t24.5 -10.5t28.5 -4q14 0 14 -14q0 -16 -38.5 -28.5t-73.5 -12.5q-68 0 -108 36t-40 95q0 86 87 157.5t227 71.5q104 0 171.5 -49 t67.5 -141t-72.5 -155.5t-256.5 -168.5q-25 -12 -50 -28l-8 -8q0 -4 25 -11q41 -8 162 -8q35 0 178 10q16 2 30.5 2t16.5 -6q2 -8 -19.5 -32.5t-42.5 -30.5q-205 -57 -417 -58q-43 0 -55.5 4.5t-30.5 22.5q-47 47 -47 59z" />
<glyph unicode="&#xbe;" horiz-adv-x="1638" d="M10 561q0 23 27 23q8 0 18 -11q111 -88 199 -88q49 0 83 25t47 61.5t17.5 62t4.5 48.5q0 125 -121 125q-18 0 -43 -4q-12 -2 -19.5 -3t-10.5 -2t-5 -1q-14 0 -27.5 25.5t-13.5 37.5q0 10 10 10l41 -4q41 -4 49 -4q45 0 74 21.5t39 54.5t13 50.5t3 31.5q0 94 -84 94 q-61 0 -98 -44t-47 -91q-4 -29 -23 -29q-16 0 -26 29q-23 68 -23 92q0 20 33 41q96 55 217 55q104 0 167.5 -34.5t63.5 -104.5q0 -86 -94 -141q-27 -14 -114 -43q45 -4 74.5 -10.5t69.5 -21.5t60.5 -48t20.5 -80q0 -113 -138.5 -189.5t-285.5 -76.5q-47 0 -68 18 q-29 27 -59.5 70t-30.5 55zM535 24.5q0 16.5 75 168.5q236 498 383 831q57 143 78 174q8 12 19 12q14 0 39.5 -31.5t25.5 -50.5q0 -16 -15.5 -50t-33.5 -66l-19 -33q-20 -33 -146 -302t-146 -319q-35 -80 -82 -186t-90 -205q-12 -33 -25 -33q-14 0 -38.5 37t-24.5 53.5z M1032 229q0 12 15 33q100 160 163 387q8 27 11.5 32t13.5 5t29.5 -21.5t29.5 -39.5q41 -57 41 -74q0 -23 -101 -158t-101 -137q0 -8 22 -10q72 -14 186 -15q0 12 2.5 81t2.5 79v76q0 10 18 10q37 0 125 -47q25 -10 29 -14t4 -19q0 -29 -11 -69q-4 -86 -4 -101q12 -4 35 0 q8 0 42 4.5t40 4.5q14 0 14 -10.5t-19.5 -33t-29.5 -28.5q-4 -2 -41 -7t-41 -5q-6 -100 0 -166q4 -31 -14 -31q-12 0 -69.5 16.5t-77.5 24.5q-16 8 -17 20q0 20 8 58q0 12 2 39.5t2 29.5q-16 -4 -180 -4l-53 2q-16 0 -27 13q-49 65 -49 75z" />
<glyph unicode="&#xbf;" horiz-adv-x="948" d="M59 -150q0 150 258 216q74 20 106 29t75 26.5t59 34t28.5 44t12.5 64.5q0 80 -50 112t-102 32q-70 0 -102.5 -41t-32.5 -95q0 -16 23 -69q4 -8 4 -17q0 -18 -23 -18q-35 0 -102.5 50t-67.5 120q0 63 82 108.5t222 45.5q147 0 273 -60.5t126 -171.5q0 -37 -11.5 -65.5 t-61.5 -66.5t-140 -65q-78 -25 -109.5 -35t-75.5 -28t-58.5 -34.5t-27 -42t-12.5 -60.5q0 -74 52.5 -115t134.5 -41q55 0 102 20.5t74.5 42t56.5 62.5t34 52.5t19 41.5q10 33 33 33t42.5 -45t19.5 -94q0 -84 -66 -123q-141 -80 -352 -80q-106 0 -202.5 22.5t-168.5 77.5 t-72 133zM373 752q2 82 6 98t29 16q20 0 109 -24.5t101 -42.5q10 -14 11 -119q0 -66 -5.5 -88.5t-27.5 -22.5q-14 0 -102 26t-105 38q-12 8 -14 26.5t-2 92.5z" />
<glyph unicode="&#xc0;" horiz-adv-x="1933" d="M-51 -20q0 12 9 23t22 11l36 -12q59 -33 93 -33q57 0 159 94q94 86 262 287q14 18 23 29q-20 0 -123.5 -5t-120.5 -5q-39 0 -61.5 14t-48.5 63q-45 86 -45 129q0 23 24 23l86 -23q6 -2 37 -10t50.5 -12t57 -12.5t71.5 -13.5t80 -9t93 -4q150 209 322 510q-96 86 -262 100 q-59 6 -73.5 12.5t-14.5 28.5q0 27 27.5 34t101.5 7q156 0 334 -29.5t233 -62.5q16 -10 25.5 -17t30 -41t44.5 -89q6 -14 101.5 -237.5t113.5 -264.5q96 -209 136 -270q25 -35 67 -35q31 0 43 -1t22.5 -8.5t10.5 -23.5q0 -29 -103 -76q-168 -84 -243 -84q-37 0 -59.5 23.5 t-55.5 93.5q-29 57 -162 351t-153 337q-51 100 -99 176q-31 -66 -116.5 -225.5t-114.5 -216.5q129 0 213 4q14 0 79.5 3t72.5 3q23 0 38 -14.5t15 -34.5q0 -10 -2 -15.5t-13.5 -10.5t-18.5 -6t-30 -5q-61 -12 -420 -39q-190 -324 -346 -500q-111 -125 -161 -124 q-61 0 -174 93t-113 120zM825 1565q-6 37 48 92t79 55q14 0 22.5 -13t39.5 -85q29 -68 139 -229q14 -25 14 -33q0 -10 -9 -20.5t-24 -10.5q-18 0 -123 68q-174 108 -186 176z" />
<glyph unicode="&#xc1;" horiz-adv-x="1933" d="M-51 -20q0 12 9 23t22 11l36 -12q59 -33 93 -33q57 0 159 94q94 86 262 287q14 18 23 29q-20 0 -123.5 -5t-120.5 -5q-39 0 -61.5 14t-48.5 63q-45 86 -45 129q0 23 24 23l86 -23q6 -2 37 -10t50.5 -12t57 -12.5t71.5 -13.5t80 -9t93 -4q150 209 322 510q-96 86 -262 100 q-59 6 -73.5 12.5t-14.5 28.5q0 27 27.5 34t101.5 7q156 0 334 -29.5t233 -62.5q16 -10 25.5 -17t30 -41t44.5 -89q6 -14 101.5 -237.5t113.5 -264.5q96 -209 136 -270q25 -35 67 -35q31 0 43 -1t22.5 -8.5t10.5 -23.5q0 -29 -103 -76q-168 -84 -243 -84q-37 0 -59.5 23.5 t-55.5 93.5q-29 57 -162 351t-153 337q-51 100 -99 176q-31 -66 -116.5 -225.5t-114.5 -216.5q129 0 213 4q14 0 79.5 3t72.5 3q23 0 38 -14.5t15 -34.5q0 -10 -2 -15.5t-13.5 -10.5t-18.5 -6t-30 -5q-61 -12 -420 -39q-190 -324 -346 -500q-111 -125 -161 -124 q-61 0 -174 93t-113 120zM923 1354q0 10 17 33q74 102 102.5 154.5t59.5 132.5q12 41 36.5 41t75.5 -51.5t51 -96.5t-138 -144.5t-171 -99.5t-33 31z" />
<glyph unicode="&#xc2;" horiz-adv-x="1933" d="M-51 -20q0 12 9 23t22 11l36 -12q59 -33 93 -33q57 0 159 94q94 86 262 287q14 18 23 29q-20 0 -123.5 -5t-120.5 -5q-39 0 -61.5 14t-48.5 63q-45 86 -45 129q0 23 24 23l86 -23q6 -2 37 -10t50.5 -12t57 -12.5t71.5 -13.5t80 -9t93 -4q150 209 322 510q-96 86 -262 100 q-59 6 -73.5 12.5t-14.5 28.5q0 27 27.5 34t101.5 7q156 0 334 -29.5t233 -62.5q16 -10 25.5 -17t30 -41t44.5 -89q6 -14 101.5 -237.5t113.5 -264.5q96 -209 136 -270q25 -35 67 -35q31 0 43 -1t22.5 -8.5t10.5 -23.5q0 -29 -103 -76q-168 -84 -243 -84q-37 0 -59.5 23.5 t-55.5 93.5q-29 57 -162 351t-153 337q-51 100 -99 176q-31 -66 -116.5 -225.5t-114.5 -216.5q129 0 213 4q14 0 79.5 3t72.5 3q23 0 38 -14.5t15 -34.5q0 -10 -2 -15.5t-13.5 -10.5t-18.5 -6t-30 -5q-61 -12 -420 -39q-190 -324 -346 -500q-111 -125 -161 -124 q-61 0 -174 93t-113 120zM768 1399l299 301l289 -272l-109 -103l-209 199l-194 -199z" />
<glyph unicode="&#xc3;" horiz-adv-x="1933" d="M-51 -20q0 12 9 23t22 11l36 -12q59 -33 93 -33q57 0 159 94q94 86 262 287q14 18 23 29q-20 0 -123.5 -5t-120.5 -5q-39 0 -61.5 14t-48.5 63q-45 86 -45 129q0 23 24 23l86 -23q6 -2 37 -10t50.5 -12t57 -12.5t71.5 -13.5t80 -9t93 -4q150 209 322 510q-96 86 -262 100 q-59 6 -73.5 12.5t-14.5 28.5q0 27 27.5 34t101.5 7q156 0 334 -29.5t233 -62.5q16 -10 25.5 -17t30 -41t44.5 -89q6 -14 101.5 -237.5t113.5 -264.5q96 -209 136 -270q25 -35 67 -35q31 0 43 -1t22.5 -8.5t10.5 -23.5q0 -29 -103 -76q-168 -84 -243 -84q-37 0 -59.5 23.5 t-55.5 93.5q-29 57 -162 351t-153 337q-51 100 -99 176q-31 -66 -116.5 -225.5t-114.5 -216.5q129 0 213 4q14 0 79.5 3t72.5 3q23 0 38 -14.5t15 -34.5q0 -10 -2 -15.5t-13.5 -10.5t-18.5 -6t-30 -5q-61 -12 -420 -39q-190 -324 -346 -500q-111 -125 -161 -124 q-61 0 -174 93t-113 120zM745 1416q0 33 60.5 126t134.5 93q45 0 147 -60q90 -51 117 -51q53 0 78 59q16 37 26.5 45.5t24.5 8.5q18 0 29.5 -14.5t7.5 -30.5q-37 -111 -94 -168q-43 -43 -97 -43q-51 0 -147 57q-88 51 -119 51q-43 0 -72 -51q-29 -45 -37 -52t-24 -7 q-12 0 -23.5 10.5t-11.5 26.5z" />
<glyph unicode="&#xc4;" horiz-adv-x="1933" d="M-51 -20q0 12 9 23t22 11l36 -12q59 -33 93 -33q57 0 159 94q94 86 262 287q14 18 23 29q-20 0 -123.5 -5t-120.5 -5q-39 0 -61.5 14t-48.5 63q-45 86 -45 129q0 23 24 23l86 -23q6 -2 37 -10t50.5 -12t57 -12.5t71.5 -13.5t80 -9t93 -4q150 209 322 510q-96 86 -262 100 q-59 6 -73.5 12.5t-14.5 28.5q0 27 27.5 34t101.5 7q156 0 334 -29.5t233 -62.5q16 -10 25.5 -17t30 -41t44.5 -89q6 -14 101.5 -237.5t113.5 -264.5q96 -209 136 -270q25 -35 67 -35q31 0 43 -1t22.5 -8.5t10.5 -23.5q0 -29 -103 -76q-168 -84 -243 -84q-37 0 -59.5 23.5 t-55.5 93.5q-29 57 -162 351t-153 337q-51 100 -99 176q-31 -66 -116.5 -225.5t-114.5 -216.5q129 0 213 4q14 0 79.5 3t72.5 3q23 0 38 -14.5t15 -34.5q0 -10 -2 -15.5t-13.5 -10.5t-18.5 -6t-30 -5q-61 -12 -420 -39q-190 -324 -346 -500q-111 -125 -161 -124 q-61 0 -174 93t-113 120zM784 1559q0 63 4 76.5t23 13.5q8 0 84 -12.5t84 -18.5q20 -12 23 -32.5t3 -114.5q0 -86 -5 -103.5t-29 -17.5q-18 0 -88 14.5t-85 26.5q-14 14 -14 168zM1089 1598q0 18 1 27.5t8.5 17.5t23.5 8q14 0 88 -13.5t86 -23.5q16 -14 17 -135 q0 -94 -5.5 -112.5t-29.5 -18.5q-12 0 -76 13.5t-78 19.5q-31 12 -31 45q0 23 -2 85t-2 87z" />
<glyph unicode="&#xc5;" horiz-adv-x="1933" d="M-51 -20q0 12 9 23t22 11l36 -12q59 -33 93 -33q57 0 159 94q94 86 262 287q14 18 23 29q-20 0 -123.5 -5t-120.5 -5q-39 0 -61.5 14t-48.5 63q-45 86 -45 129q0 23 24 23l86 -23q6 -2 37 -10t50.5 -12t57 -12.5t71.5 -13.5t80 -9t93 -4q150 209 322 510q-96 86 -262 100 q-59 6 -73.5 12.5t-14.5 28.5q0 27 27.5 34t101.5 7q156 0 334 -29.5t233 -62.5q16 -10 25.5 -17t30 -41t44.5 -89q6 -14 101.5 -237.5t113.5 -264.5q96 -209 136 -270q25 -35 67 -35q31 0 43 -1t22.5 -8.5t10.5 -23.5q0 -29 -103 -76q-168 -84 -243 -84q-37 0 -59.5 23.5 t-55.5 93.5q-29 57 -162 351t-153 337q-51 100 -99 176q-31 -66 -116.5 -225.5t-114.5 -216.5q129 0 213 4q14 0 79.5 3t72.5 3q23 0 38 -14.5t15 -34.5q0 -10 -2 -15.5t-13.5 -10.5t-18.5 -6t-30 -5q-61 -12 -420 -39q-190 -324 -346 -500q-111 -125 -161 -124 q-61 0 -174 93t-113 120zM850 1452q0 78 56 134t134 56q80 0 136.5 -56t56.5 -134t-56.5 -134.5t-136.5 -56.5q-78 0 -134 56.5t-56 134.5zM927 1452q0 -47 33 -80t80 -33t80 33t33 80t-33 79.5t-80 32.5t-80 -32.5t-33 -79.5z" />
<glyph unicode="&#xc6;" horiz-adv-x="2390" d="M-6 25q0 31 29 30q10 0 65 -32q37 -20 59 -21q88 0 365 379q-197 -4 -242 12q-41 14 -80.5 79t-39.5 106q0 27 22 26q6 0 25.5 -7t40 -16.5t24.5 -11.5q147 -53 336 -59q59 90 141 235q8 14 40 73t60.5 112t37.5 67q-20 37 -33 56.5t-42.5 42t-66.5 28.5 q-59 10 -76.5 17.5t-17.5 29.5q0 25 17.5 30t66.5 5q156 0 296 -31.5t169 -78.5q12 -20 38.5 -88t54.5 -142.5t32 -87.5q84 170 245.5 291t346.5 121q250 0 301 -84q16 -27 27.5 -84t11.5 -74q0 -39 -33 -39q-14 0 -43 27q-59 59 -152.5 100t-179.5 41q-141 0 -233 -121 q-139 -182 -140 -419q0 -55 11.5 -111.5t42 -127.5t101.5 -115t171 -44q102 0 285 60q10 4 57 23.5t90 34.5t57 15q16 0 32 -13t16 -36q0 -43 -109 -90q-360 -160 -627 -160q-168 0 -249.5 70t-145.5 215q-68 156 -197 463q-18 47 -34.5 85t-22.5 52t-11 25.5t-7 19.5 q-10 -18 -92 -192t-101 -209q100 -4 268 2q51 4 52 -37q0 -20 -10.5 -27.5t-47.5 -13.5q-109 -23 -315 -37q-10 -20 -75.5 -137t-78.5 -137q-178 -307 -260 -308q-63 0 -167.5 92.5t-104.5 125.5zM1513 569q0 23 18.5 29t100.5 10q162 8 280 29.5t171 39t65 17.5 q27 0 27 -24q0 -12 -23.5 -58.5t-50.5 -79.5q-20 -29 -114 -28q-68 0 -223.5 11t-207.5 20q-43 7 -43 34z" />
<glyph unicode="&#xc7;" horiz-adv-x="1744" d="M47 375q0 190 165 383.5t421 315.5t508 122q145 0 253.5 -28.5t139.5 -61.5q39 -43 64.5 -115.5t25.5 -97.5q0 -29 -27 -29q-4 0 -30.5 14.5t-60 35t-40.5 22.5q-238 121 -456 121q-121 0 -223.5 -42t-168 -107.5t-111.5 -146.5t-65.5 -158t-19.5 -142q0 -195 182 -283 q115 -51 309 -51q295 0 646 121q111 35 114 35q31 0 39 -27q4 -16 4 -29q0 -20 -13 -32.5t-54 -28.5q-354 -143 -682 -176q-51 -51 -51.5 -67.5t55.5 -53.5q61 -43 61 -82q0 -43 -100 -111q-78 -53 -184 -108l-39 55q72 43 125 82q23 23 22 33q0 20 -43 47q-45 29 -45 59 q0 39 115 138q-10 0 -41 -3.5t-45 -3.5h-64q-109 0 -196.5 8.5t-182 34t-159 67.5t-106.5 117t-42 173z" />
<glyph unicode="&#xc8;" horiz-adv-x="1744" d="M47 375q0 268 311 522q373 299 785 299q104 0 226 -22.5t167 -71.5q29 -33 59.5 -110t30.5 -103q0 -14 -8 -20.5t-16.5 -6.5t-28.5 12q-295 184 -561 185q-152 0 -274 -63.5t-190.5 -159t-103 -193.5t-34.5 -182q0 -156 118 -250q119 -92 375 -92q311 0 694 129 q61 20 64 20q29 0 41 -30q6 -12 6 -23q0 -23 -12.5 -34t-65.5 -31q-213 -80 -423 -127.5t-482 -47.5q-152 0 -268.5 18.5t-211.5 62.5t-146.5 124t-51.5 195zM477 573.5q0 20.5 11.5 31.5t21.5 12t33 1q438 0 786 64q6 0 40 8t40 8q29 0 29 -26q0 -14 -20.5 -71.5 t-41.5 -80.5q-25 -33 -147 -33q-285 0 -711 58q-41 8 -41 28.5zM731 1565q-6 37 48 92t79 55q14 0 22.5 -13t39.5 -85q29 -68 139 -229q14 -25 14 -33q0 -10 -9 -20.5t-24 -10.5q-18 0 -123 68q-174 108 -186 176z" />
<glyph unicode="&#xc9;" horiz-adv-x="1744" d="M47 375q0 268 311 522q373 299 785 299q104 0 226 -22.5t167 -71.5q29 -33 59.5 -110t30.5 -103q0 -14 -8 -20.5t-16.5 -6.5t-28.5 12q-295 184 -561 185q-152 0 -274 -63.5t-190.5 -159t-103 -193.5t-34.5 -182q0 -156 118 -250q119 -92 375 -92q311 0 694 129 q61 20 64 20q29 0 41 -30q6 -12 6 -23q0 -23 -12.5 -34t-65.5 -31q-213 -80 -423 -127.5t-482 -47.5q-152 0 -268.5 18.5t-211.5 62.5t-146.5 124t-51.5 195zM477 573.5q0 20.5 11.5 31.5t21.5 12t33 1q438 0 786 64q6 0 40 8t40 8q29 0 29 -26q0 -14 -20.5 -71.5 t-41.5 -80.5q-25 -33 -147 -33q-285 0 -711 58q-41 8 -41 28.5zM829 1354q0 10 17 33q74 102 102.5 154.5t59.5 132.5q12 41 36.5 41t75.5 -51.5t51 -96.5t-138 -144.5t-171 -99.5t-33 31z" />
<glyph unicode="&#xca;" horiz-adv-x="1744" d="M47 375q0 268 311 522q373 299 785 299q104 0 226 -22.5t167 -71.5q29 -33 59.5 -110t30.5 -103q0 -14 -8 -20.5t-16.5 -6.5t-28.5 12q-295 184 -561 185q-152 0 -274 -63.5t-190.5 -159t-103 -193.5t-34.5 -182q0 -156 118 -250q119 -92 375 -92q311 0 694 129 q61 20 64 20q29 0 41 -30q6 -12 6 -23q0 -23 -12.5 -34t-65.5 -31q-213 -80 -423 -127.5t-482 -47.5q-152 0 -268.5 18.5t-211.5 62.5t-146.5 124t-51.5 195zM477 573.5q0 20.5 11.5 31.5t21.5 12t33 1q438 0 786 64q6 0 40 8t40 8q29 0 29 -26q0 -14 -20.5 -71.5 t-41.5 -80.5q-25 -33 -147 -33q-285 0 -711 58q-41 8 -41 28.5zM674 1399l299 301l289 -272l-109 -103l-209 199l-194 -199z" />
<glyph unicode="&#xcb;" horiz-adv-x="1744" d="M47 375q0 268 311 522q373 299 785 299q104 0 226 -22.5t167 -71.5q29 -33 59.5 -110t30.5 -103q0 -14 -8 -20.5t-16.5 -6.5t-28.5 12q-295 184 -561 185q-152 0 -274 -63.5t-190.5 -159t-103 -193.5t-34.5 -182q0 -156 118 -250q119 -92 375 -92q311 0 694 129 q61 20 64 20q29 0 41 -30q6 -12 6 -23q0 -23 -12.5 -34t-65.5 -31q-213 -80 -423 -127.5t-482 -47.5q-152 0 -268.5 18.5t-211.5 62.5t-146.5 124t-51.5 195zM477 573.5q0 20.5 11.5 31.5t21.5 12t33 1q438 0 786 64q6 0 40 8t40 8q29 0 29 -26q0 -14 -20.5 -71.5 t-41.5 -80.5q-25 -33 -147 -33q-285 0 -711 58q-41 8 -41 28.5zM690 1559q0 63 4 76.5t23 13.5q8 0 84 -12.5t84 -18.5q20 -12 23 -32.5t3 -114.5q0 -86 -5 -103.5t-29 -17.5q-18 0 -88 14.5t-85 26.5q-14 14 -14 168zM995 1598q0 18 1 27.5t8.5 17.5t23.5 8q14 0 88 -13.5 t86 -23.5q16 -14 17 -135q0 -94 -5.5 -112.5t-29.5 -18.5q-12 0 -76 13.5t-78 19.5q-31 12 -31 45q0 23 -2 85t-2 87z" />
<glyph unicode="&#xcc;" d="M55 1307q0 8 3 13t11.5 7t15.5 2t18.5 -1t15.5 -1q20 0 96 -15.5t125 -35.5q31 -14 31 -45q-31 -555 -31 -1079q0 -72 10 -121q2 -12 10.5 -21.5t13.5 -13.5q9 -7 9 -14q0 -4 -6 -7q-2 -2 -55.5 -2t-196.5 60q-29 10 -29 45q0 84 10 289q8 281 9 620q0 61 -13 234 q-2 18 -24.5 49t-22.5 37zM608 1565q-6 37 48 92t79 55q14 0 22.5 -13t39.5 -85q29 -68 139 -229q14 -25 14 -33q0 -10 -9 -20.5t-24 -10.5q-18 0 -123 68q-174 108 -186 176z" />
<glyph unicode="&#xcd;" d="M55 1307q0 8 3 13t11.5 7t15.5 2t18.5 -1t15.5 -1q20 0 96 -15.5t125 -35.5q31 -14 31 -45q-31 -555 -31 -1079q0 -72 10 -121q2 -12 10.5 -21.5t13.5 -13.5q9 -7 9 -14q0 -4 -6 -7q-2 -2 -55.5 -2t-196.5 60q-29 10 -29 45q0 84 10 289q8 281 9 620q0 61 -13 234 q-2 18 -24.5 49t-22.5 37zM706 1354q0 10 17 33q74 102 102.5 154.5t59.5 132.5q12 41 36.5 41t75.5 -51.5t51 -96.5t-138 -144.5t-171 -99.5t-33 31z" />
<glyph unicode="&#xce;" d="M55 1307q0 8 3 13t11.5 7t15.5 2t18.5 -1t15.5 -1q20 0 96 -15.5t125 -35.5q31 -14 31 -45q-31 -555 -31 -1079q0 -72 10 -121q2 -12 10.5 -21.5t13.5 -13.5q9 -7 9 -14q0 -4 -6 -7q-2 -2 -55.5 -2t-196.5 60q-29 10 -29 45q0 84 10 289q8 281 9 620q0 61 -13 234 q-2 18 -24.5 49t-22.5 37zM551 1399l299 301l289 -272l-109 -103l-209 199l-194 -199z" />
<glyph unicode="&#xcf;" d="M55 1307q0 8 3 13t11.5 7t15.5 2t18.5 -1t15.5 -1q20 0 96 -15.5t125 -35.5q31 -14 31 -45q-31 -555 -31 -1079q0 -72 10 -121q2 -12 10.5 -21.5t13.5 -13.5q9 -7 9 -14q0 -4 -6 -7q-2 -2 -55.5 -2t-196.5 60q-29 10 -29 45q0 84 10 289q8 281 9 620q0 61 -13 234 q-2 18 -24.5 49t-22.5 37zM567 1559q0 63 4 76.5t23 13.5q8 0 84 -12.5t84 -18.5q20 -12 23 -32.5t3 -114.5q0 -86 -5 -103.5t-29 -17.5q-18 0 -88 14.5t-85 26.5q-14 14 -14 168zM872 1598q0 18 1 27.5t8.5 17.5t23.5 8q14 0 88 -13.5t86 -23.5q16 -14 17 -135 q0 -94 -5.5 -112.5t-29.5 -18.5q-12 0 -76 13.5t-78 19.5q-31 12 -31 45q0 23 -2 85t-2 87z" />
<glyph unicode="&#xd0;" horiz-adv-x="1744" d="M-43 1051q0 41 45 55q80 23 320 59q-4 53 -5 82q0 43 29 43q25 0 116 -22.5t152 -42.5q57 -18 64 -39q397 8 676 -62q49 -12 87 -25.5t97 -46t99 -75.5t70 -116t30 -163q0 -326 -322 -536q-272 -182 -743 -182q-117 0 -293 15t-209 44q-20 18 -56 92t-36 90q0 27 22 27 q10 0 70 -31q57 -31 170 -61q0 264 -4 419l-203 7q-25 2 -33 3t-11 5t-3 14q0 25 25 49q10 10 47 13l178 8q0 29 -3 181.5t-3 176.5q-160 -41 -240 -98q-23 -16 -41 -16q-43 0 -80 55q-12 19 -12 78zM616 98q86 -14 154 -14q274 0 442 151.5t168 432.5q0 100 -40 177 t-103 120t-142 72.5t-158 36.5t-149.5 12.5t-115.5 -1.5l-27 -397q33 4 88 8q55 6 137 19q18 4 62.5 12t79.5 15.5t41 7.5q20 0 20 -19q0 -16 -22.5 -76.5t-42.5 -79.5q-27 -27 -160 -26q-25 0 -117 4t-94 4q-21 -379 -21 -459z" />
<glyph unicode="&#xd1;" horiz-adv-x="1896" d="M-51 -57q0 33 31 32q20 0 55 -24q41 -25 55 -25q59 0 161.5 228.5t168.5 474.5q25 78 45 180q8 37 14 68l9 46q3 15 5.5 26.5t3.5 16.5t3 9q-6 4 -37 35.5t-37 38.5q-35 29 -117 59q-37 10 -37 41q0 37 70 37q88 0 282.5 -25.5t227.5 -62.5q2 -4 66.5 -92t139.5 -189.5 t97 -130.5q82 -109 224.5 -269.5t176.5 -160.5q25 0 33 51q14 76 15 195q0 203 -40 382t-102 220q-53 37 -53 51q0 35 45 35q37 0 115 -18.5t141 -61.5q29 -18 35 -38.5t6 -100.5q0 -145 -22.5 -395t-61.5 -416q-29 -123 -70 -167t-98 -44q-41 0 -78 18.5t-133 108.5 t-254 268q-96 109 -416 492q-20 25 -40 45q-4 -25 -21.5 -140.5t-19.5 -122.5q-92 -489 -203 -774q-20 -49 -37.5 -74.5t-27 -30.5t-23.5 -5q-70 0 -183.5 83t-113.5 126zM747 1416q0 33 60.5 126t134.5 93q45 0 147 -60q90 -51 117 -51q53 0 78 59q16 37 26.5 45.5 t24.5 8.5q18 0 29.5 -14.5t7.5 -30.5q-37 -111 -94 -168q-43 -43 -97 -43q-51 0 -147 57q-88 51 -119 51q-43 0 -72 -51q-29 -45 -37 -52t-24 -7q-12 0 -23.5 10.5t-11.5 26.5z" />
<glyph unicode="&#xd2;" horiz-adv-x="1972" d="M76 473q0 119 50 227.5t131 189.5t147.5 130t134.5 88q121 66 274.5 117t187.5 51q29 0 29 -37q0 -14 -1 -20.5t-8 -12.5t-14.5 -8t-25.5 -8q-225 -72 -358 -189q-96 -86 -143.5 -204.5t-47.5 -233.5q0 -197 134 -334t347 -137q274 0 455.5 194.5t181.5 438.5 q0 137 -78.5 233.5t-238.5 96.5q-178 0 -389 -105q-53 -27 -64 -26q-33 0 -32 49q0 31 96 71q301 133 579 134q33 0 56.5 -1t78 -9.5t94.5 -23t90 -44t83 -71.5t55.5 -109.5t22.5 -151.5q0 -147 -101.5 -301t-279.5 -266q-133 -84 -338 -157t-455 -73q-301 0 -477 133 t-176 369zM846 1565q-6 37 48 92t79 55q14 0 22.5 -13t39.5 -85q29 -68 139 -229q14 -25 14 -33q0 -10 -9 -20.5t-24 -10.5q-18 0 -123 68q-174 108 -186 176z" />
<glyph unicode="&#xd3;" horiz-adv-x="1972" d="M76 473q0 119 50 227.5t131 189.5t147.5 130t134.5 88q121 66 274.5 117t187.5 51q29 0 29 -37q0 -14 -1 -20.5t-8 -12.5t-14.5 -8t-25.5 -8q-225 -72 -358 -189q-96 -86 -143.5 -204.5t-47.5 -233.5q0 -197 134 -334t347 -137q274 0 455.5 194.5t181.5 438.5 q0 137 -78.5 233.5t-238.5 96.5q-178 0 -389 -105q-53 -27 -64 -26q-33 0 -32 49q0 31 96 71q301 133 579 134q33 0 56.5 -1t78 -9.5t94.5 -23t90 -44t83 -71.5t55.5 -109.5t22.5 -151.5q0 -147 -101.5 -301t-279.5 -266q-133 -84 -338 -157t-455 -73q-301 0 -477 133 t-176 369zM944 1354q0 10 17 33q74 102 102.5 154.5t59.5 132.5q12 41 36.5 41t75.5 -51.5t51 -96.5t-138 -144.5t-171 -99.5t-33 31z" />
<glyph unicode="&#xd4;" horiz-adv-x="1972" d="M76 473q0 119 50 227.5t131 189.5t147.5 130t134.5 88q121 66 274.5 117t187.5 51q29 0 29 -37q0 -14 -1 -20.5t-8 -12.5t-14.5 -8t-25.5 -8q-225 -72 -358 -189q-96 -86 -143.5 -204.5t-47.5 -233.5q0 -197 134 -334t347 -137q274 0 455.5 194.5t181.5 438.5 q0 137 -78.5 233.5t-238.5 96.5q-178 0 -389 -105q-53 -27 -64 -26q-33 0 -32 49q0 31 96 71q301 133 579 134q33 0 56.5 -1t78 -9.5t94.5 -23t90 -44t83 -71.5t55.5 -109.5t22.5 -151.5q0 -147 -101.5 -301t-279.5 -266q-133 -84 -338 -157t-455 -73q-301 0 -477 133 t-176 369zM789 1399l299 301l289 -272l-109 -103l-209 199l-194 -199z" />
<glyph unicode="&#xd5;" horiz-adv-x="1972" d="M76 473q0 119 50 227.5t131 189.5t147.5 130t134.5 88q121 66 274.5 117t187.5 51q29 0 29 -37q0 -14 -1 -20.5t-8 -12.5t-14.5 -8t-25.5 -8q-225 -72 -358 -189q-96 -86 -143.5 -204.5t-47.5 -233.5q0 -197 134 -334t347 -137q274 0 455.5 194.5t181.5 438.5 q0 137 -78.5 233.5t-238.5 96.5q-178 0 -389 -105q-53 -27 -64 -26q-33 0 -32 49q0 31 96 71q301 133 579 134q33 0 56.5 -1t78 -9.5t94.5 -23t90 -44t83 -71.5t55.5 -109.5t22.5 -151.5q0 -147 -101.5 -301t-279.5 -266q-133 -84 -338 -157t-455 -73q-301 0 -477 133 t-176 369zM766 1416q0 33 60.5 126t134.5 93q45 0 147 -60q90 -51 117 -51q53 0 78 59q16 37 26.5 45.5t24.5 8.5q18 0 29.5 -14.5t7.5 -30.5q-37 -111 -94 -168q-43 -43 -97 -43q-51 0 -147 57q-88 51 -119 51q-43 0 -72 -51q-29 -45 -37 -52t-24 -7q-12 0 -23.5 10.5 t-11.5 26.5z" />
<glyph unicode="&#xd6;" horiz-adv-x="1972" d="M76 473q0 119 50 227.5t131 189.5t147.5 130t134.5 88q121 66 274.5 117t187.5 51q29 0 29 -37q0 -14 -1 -20.5t-8 -12.5t-14.5 -8t-25.5 -8q-225 -72 -358 -189q-96 -86 -143.5 -204.5t-47.5 -233.5q0 -197 134 -334t347 -137q274 0 455.5 194.5t181.5 438.5 q0 137 -78.5 233.5t-238.5 96.5q-178 0 -389 -105q-53 -27 -64 -26q-33 0 -32 49q0 31 96 71q301 133 579 134q33 0 56.5 -1t78 -9.5t94.5 -23t90 -44t83 -71.5t55.5 -109.5t22.5 -151.5q0 -147 -101.5 -301t-279.5 -266q-133 -84 -338 -157t-455 -73q-301 0 -477 133 t-176 369zM805 1559q0 63 4 76.5t23 13.5q8 0 84 -12.5t84 -18.5q20 -12 23 -32.5t3 -114.5q0 -86 -5 -103.5t-29 -17.5q-18 0 -88 14.5t-85 26.5q-14 14 -14 168zM1110 1598q0 18 1 27.5t8.5 17.5t23.5 8q14 0 88 -13.5t86 -23.5q16 -14 17 -135q0 -94 -5.5 -112.5 t-29.5 -18.5q-12 0 -76 13.5t-78 19.5q-31 12 -31 45q0 23 -2 85t-2 87z" />
<glyph unicode="&#xd7;" horiz-adv-x="1228" d="M133 176l342 342l-342 342l139 139l342 -342l342 342l140 -139l-342 -342l342 -342l-140 -139l-342 342l-342 -342z" />
<glyph unicode="&#xd8;" horiz-adv-x="1972" d="M76 473q0 119 50 227.5t131 189.5t147.5 130t134.5 88q121 66 274.5 117t187.5 51q29 0 29 -37q0 -14 -1 -20.5t-8 -12.5t-14.5 -8t-25.5 -8q-225 -72 -358 -189q-96 -86 -143.5 -204.5t-47.5 -233.5q0 -166 100 -293l883 736q-76 49 -182 49q-178 0 -389 -105 q-53 -27 -64 -26q-33 0 -32 49q0 31 96 71q301 133 579 134q102 0 179 -19l120 101q31 25 41 24q12 0 25.5 -15.5t13.5 -27.5q0 -14 -33 -43l-81 -68q215 -94 215 -362q0 -147 -101.5 -301t-279.5 -266q-133 -84 -338 -157t-455 -73q-209 0 -358 66l-121 -100 q-31 -25 -41 -25q-12 0 -24.5 15.5t-12.5 27.5q0 14 33 43l92 76q-221 135 -221 399zM586 215q133 -123 327 -123q274 0 455.5 194.5t181.5 438.5q0 139 -75 229z" />
<glyph unicode="&#xd9;" horiz-adv-x="1744" d="M158 1167q0 31 61 31q158 -2 307 -68q43 -20 56.5 -33.5t13.5 -39.5q0 -74 -35 -260q-66 -371 -65 -459q0 -170 141 -170q156 0 307 213q74 106 142.5 266t68.5 305q0 12 -5 72.5t-5 65.5q0 39 31 38q43 0 123.5 -24.5t132.5 -52.5q39 -20 47 -35t8 -55q0 -240 31 -519 q29 -307 63 -352q14 -16 80 -18q43 -2 43 -35q0 -10 -3 -15.5t-22.5 -18.5t-62.5 -38q-215 -117 -291 -117q-16 0 -25.5 4.5t-20.5 27t-19 65.5q-59 301 -64 725q-111 -309 -272 -473q-229 -240 -482 -240q-78 0 -133 23.5t-81.5 53t-41 74t-16.5 66t-2 49.5q0 98 37 393 q33 295 33 375q0 78 -33 111q-47 45 -47 65zM649 1565q-6 37 48 92t79 55q14 0 22.5 -13t39.5 -85q29 -68 139 -229q14 -25 14 -33q0 -10 -9 -20.5t-24 -10.5q-18 0 -123 68q-174 108 -186 176z" />
<glyph unicode="&#xda;" horiz-adv-x="1744" d="M158 1167q0 31 61 31q158 -2 307 -68q43 -20 56.5 -33.5t13.5 -39.5q0 -74 -35 -260q-66 -371 -65 -459q0 -170 141 -170q156 0 307 213q74 106 142.5 266t68.5 305q0 12 -5 72.5t-5 65.5q0 39 31 38q43 0 123.5 -24.5t132.5 -52.5q39 -20 47 -35t8 -55q0 -240 31 -519 q29 -307 63 -352q14 -16 80 -18q43 -2 43 -35q0 -10 -3 -15.5t-22.5 -18.5t-62.5 -38q-215 -117 -291 -117q-16 0 -25.5 4.5t-20.5 27t-19 65.5q-59 301 -64 725q-111 -309 -272 -473q-229 -240 -482 -240q-78 0 -133 23.5t-81.5 53t-41 74t-16.5 66t-2 49.5q0 98 37 393 q33 295 33 375q0 78 -33 111q-47 45 -47 65zM747 1354q0 10 17 33q74 102 102.5 154.5t59.5 132.5q12 41 36.5 41t75.5 -51.5t51 -96.5t-138 -144.5t-171 -99.5t-33 31z" />
<glyph unicode="&#xdb;" horiz-adv-x="1744" d="M158 1167q0 31 61 31q158 -2 307 -68q43 -20 56.5 -33.5t13.5 -39.5q0 -74 -35 -260q-66 -371 -65 -459q0 -170 141 -170q156 0 307 213q74 106 142.5 266t68.5 305q0 12 -5 72.5t-5 65.5q0 39 31 38q43 0 123.5 -24.5t132.5 -52.5q39 -20 47 -35t8 -55q0 -240 31 -519 q29 -307 63 -352q14 -16 80 -18q43 -2 43 -35q0 -10 -3 -15.5t-22.5 -18.5t-62.5 -38q-215 -117 -291 -117q-16 0 -25.5 4.5t-20.5 27t-19 65.5q-59 301 -64 725q-111 -309 -272 -473q-229 -240 -482 -240q-78 0 -133 23.5t-81.5 53t-41 74t-16.5 66t-2 49.5q0 98 37 393 q33 295 33 375q0 78 -33 111q-47 45 -47 65zM592 1399l299 301l289 -272l-109 -103l-209 199l-194 -199z" />
<glyph unicode="&#xdc;" horiz-adv-x="1744" d="M158 1167q0 31 61 31q158 -2 307 -68q43 -20 56.5 -33.5t13.5 -39.5q0 -74 -35 -260q-66 -371 -65 -459q0 -170 141 -170q156 0 307 213q74 106 142.5 266t68.5 305q0 12 -5 72.5t-5 65.5q0 39 31 38q43 0 123.5 -24.5t132.5 -52.5q39 -20 47 -35t8 -55q0 -240 31 -519 q29 -307 63 -352q14 -16 80 -18q43 -2 43 -35q0 -10 -3 -15.5t-22.5 -18.5t-62.5 -38q-215 -117 -291 -117q-16 0 -25.5 4.5t-20.5 27t-19 65.5q-59 301 -64 725q-111 -309 -272 -473q-229 -240 -482 -240q-78 0 -133 23.5t-81.5 53t-41 74t-16.5 66t-2 49.5q0 98 37 393 q33 295 33 375q0 78 -33 111q-47 45 -47 65zM608 1559q0 63 4 76.5t23 13.5q8 0 84 -12.5t84 -18.5q20 -12 23 -32.5t3 -114.5q0 -86 -5 -103.5t-29 -17.5q-18 0 -88 14.5t-85 26.5q-14 14 -14 168zM913 1598q0 18 1 27.5t8.5 17.5t23.5 8q14 0 88 -13.5t86 -23.5 q16 -14 17 -135q0 -94 -5.5 -112.5t-29.5 -18.5q-12 0 -76 13.5t-78 19.5q-31 12 -31 45q0 23 -2 85t-2 87z" />
<glyph unicode="&#xdd;" horiz-adv-x="1593" d="M-35 1153q0 25 25.5 31t91.5 6q111 0 255 -24.5t168.5 -51.5t184.5 -364q2 -2 207 -488q4 6 36 47t59.5 76t35.5 47q262 391 262 658q0 51 -18 100q-18 55 -19 57q0 25 29 25q45 0 158.5 -99.5t113.5 -162.5q0 -76 -223 -379q-139 -193 -481 -576q-178 -205 -178 -219 q0 -20 47 -20q240 0 522 49q111 25 127 24q29 0 29 -24.5t-11.5 -38.5t-21.5 -18.5t-33 -10.5q-195 -53 -518.5 -125.5t-411.5 -72.5q-41 0 -59 30q-6 12 -23.5 50t-17.5 49q0 23 39 43q184 98 313 235q-66 188 -261 576.5t-259 455.5q-35 35 -123 72q-45 20 -45 43z M712 1354q0 10 17 33q74 102 102.5 154.5t59.5 132.5q12 41 36.5 41t75.5 -51.5t51 -96.5t-138 -144.5t-171 -99.5t-33 31z" />
<glyph unicode="&#xde;" horiz-adv-x="1669" d="M25 905.5q0 18.5 8 24.5t37 12q104 29 217 39q6 78 -2 158q0 6 -4.5 37.5t-4.5 35.5q0 31 33 31q113 0 244 -63q29 -14 35 -29.5t6 -71.5v-35v-16l-2 -10q80 6 172 14q106 4 182 4q346 0 521 -64.5t175 -230.5q0 -115 -83.5 -215t-208.5 -163.5t-258.5 -100.5t-239.5 -37 q-121 0 -150 33q-16 16 -35.5 73.5t-19.5 88.5q0 33 21 33q16 0 86 -58q29 -23 88 -41t119 -18q143 0 243.5 88t100.5 223q0 287 -453 287q-135 0 -260 -25q-6 -86 -6 -311q0 -336 24 -524q0 -4 9.5 -46t9.5 -51q0 -23 -45 -22q-74 0 -224 43q-49 14 -73.5 30.5t-27.5 27 t-3 30.5t25 438q10 195 10 314q-53 -10 -119 -39q-14 -6 -31.5 -16.5t-27 -15.5t-17.5 -5q-23 0 -47 62.5t-24 81z" />
<glyph unicode="&#xdf;" horiz-adv-x="909" d="M78 909q0 174 80 271q121 150 364 149q111 0 187.5 -49t76.5 -143q0 -78 -51 -138.5t-143 -132.5q-37 -29 -37 -43q0 -10 9 -16t54 -23q6 -2 11 -4q117 -43 176 -107.5t59 -197.5q0 -193 -143 -336q-63 -63 -153.5 -117.5t-164.5 -54.5q-35 0 -51 12.5t-16 47.5 q0 16 3 51t17.5 79t36.5 44q18 0 58 -45q37 -49 69 -50q41 0 59.5 85t18.5 171q0 43 -3 72t-14.5 73t-40 76.5t-75.5 53.5q-57 27 -72.5 39t-15.5 39q0 33 53 102q106 131 107 268q0 145 -91 146q-27 0 -46 -9.5t-32.5 -34t-20.5 -45t-12 -67.5t-7 -75.5t-6 -94.5 q-12 -268 -39 -743q-10 -190 -11 -338q0 -133 -4 -148q-8 -27 -72.5 -48t-80.5 -21q-29 0 -29 31q0 6 2 28.5t2 26.5q0 18 2 111.5t2 107.5q0 229 -4 463q-12 503 -12 534z" />
<glyph unicode="&#xe0;" horiz-adv-x="909" d="M43 279q0 223 151.5 410.5t299.5 187.5q33 0 56 -11.5t35.5 -34t17.5 -36t9 -35.5l125 37q20 8 37 8q25 0 25 -27l-4 -67q0 -10 -3.5 -59.5t-3.5 -71.5q0 -145 16.5 -292t37.5 -163q4 -2 21.5 -6t19.5 -4q14 -4 14 -21q0 -27 -104.5 -85t-139.5 -58q-10 0 -16 2 t-16.5 18.5t-16.5 46.5q-18 90 -24 279q-18 -53 -35 -88t-54.5 -94.5t-96 -92t-130.5 -32.5q-102 0 -161.5 78t-59.5 211zM297 272q0 -145 70 -145q55 0 109 106.5t77 260.5q10 66 10 118q0 160 -106 160q-82 0 -117 -125q-43 -160 -43 -375zM231 1196q-6 37 48 92t79 55 q14 0 22.5 -13t39.5 -85q29 -68 139 -229q14 -25 14 -33q0 -10 -9 -20.5t-24 -10.5q-18 0 -123 68q-174 108 -186 176z" />
<glyph unicode="&#xe1;" horiz-adv-x="909" d="M43 279q0 223 151.5 410.5t299.5 187.5q33 0 56 -11.5t35.5 -34t17.5 -36t9 -35.5l125 37q20 8 37 8q25 0 25 -27l-4 -67q0 -10 -3.5 -59.5t-3.5 -71.5q0 -145 16.5 -292t37.5 -163q4 -2 21.5 -6t19.5 -4q14 -4 14 -21q0 -27 -104.5 -85t-139.5 -58q-10 0 -16 2 t-16.5 18.5t-16.5 46.5q-18 90 -24 279q-18 -53 -35 -88t-54.5 -94.5t-96 -92t-130.5 -32.5q-102 0 -161.5 78t-59.5 211zM297 272q0 -145 70 -145q55 0 109 106.5t77 260.5q10 66 10 118q0 160 -106 160q-82 0 -117 -125q-43 -160 -43 -375zM329 985q0 10 17 33 q74 102 102.5 154.5t59.5 132.5q12 41 36.5 41t75.5 -51.5t51 -96.5t-138 -144.5t-171 -99.5t-33 31z" />
<glyph unicode="&#xe2;" horiz-adv-x="909" d="M43 279q0 223 151.5 410.5t299.5 187.5q33 0 56 -11.5t35.5 -34t17.5 -36t9 -35.5l125 37q20 8 37 8q25 0 25 -27l-4 -67q0 -10 -3.5 -59.5t-3.5 -71.5q0 -145 16.5 -292t37.5 -163q4 -2 21.5 -6t19.5 -4q14 -4 14 -21q0 -27 -104.5 -85t-139.5 -58q-10 0 -16 2 t-16.5 18.5t-16.5 46.5q-18 90 -24 279q-18 -53 -35 -88t-54.5 -94.5t-96 -92t-130.5 -32.5q-102 0 -161.5 78t-59.5 211zM297 272q0 -145 70 -145q55 0 109 106.5t77 260.5q10 66 10 118q0 160 -106 160q-82 0 -117 -125q-43 -160 -43 -375zM174 1030l299 301l289 -272 l-109 -103l-209 199l-194 -199z" />
<glyph unicode="&#xe3;" horiz-adv-x="909" d="M43 279q0 223 151.5 410.5t299.5 187.5q33 0 56 -11.5t35.5 -34t17.5 -36t9 -35.5l125 37q20 8 37 8q25 0 25 -27l-4 -67q0 -10 -3.5 -59.5t-3.5 -71.5q0 -145 16.5 -292t37.5 -163q4 -2 21.5 -6t19.5 -4q14 -4 14 -21q0 -27 -104.5 -85t-139.5 -58q-10 0 -16 2 t-16.5 18.5t-16.5 46.5q-18 90 -24 279q-18 -53 -35 -88t-54.5 -94.5t-96 -92t-130.5 -32.5q-102 0 -161.5 78t-59.5 211zM297 272q0 -145 70 -145q55 0 109 106.5t77 260.5q10 66 10 118q0 160 -106 160q-82 0 -117 -125q-43 -160 -43 -375zM151 1047q0 33 60.5 126 t134.5 93q45 0 147 -60q90 -51 117 -51q53 0 78 59q16 37 26.5 45.5t24.5 8.5q18 0 29.5 -14.5t7.5 -30.5q-37 -111 -94 -168q-43 -43 -97 -43q-51 0 -147 57q-88 51 -119 51q-43 0 -72 -51q-29 -45 -37 -52t-24 -7q-12 0 -23.5 10.5t-11.5 26.5z" />
<glyph unicode="&#xe4;" horiz-adv-x="909" d="M43 279q0 223 151.5 410.5t299.5 187.5q33 0 56 -11.5t35.5 -34t17.5 -36t9 -35.5l125 37q20 8 37 8q25 0 25 -27l-4 -67q0 -10 -3.5 -59.5t-3.5 -71.5q0 -145 16.5 -292t37.5 -163q4 -2 21.5 -6t19.5 -4q14 -4 14 -21q0 -27 -104.5 -85t-139.5 -58q-10 0 -16 2 t-16.5 18.5t-16.5 46.5q-18 90 -24 279q-18 -53 -35 -88t-54.5 -94.5t-96 -92t-130.5 -32.5q-102 0 -161.5 78t-59.5 211zM297 272q0 -145 70 -145q55 0 109 106.5t77 260.5q10 66 10 118q0 160 -106 160q-82 0 -117 -125q-43 -160 -43 -375zM190 1190q0 63 4 76.5t23 13.5 q8 0 84 -12.5t84 -18.5q20 -12 23 -32.5t3 -114.5q0 -86 -5 -103.5t-29 -17.5q-18 0 -88 14.5t-85 26.5q-14 14 -14 168zM495 1229q0 18 1 27.5t8.5 17.5t23.5 8q14 0 88 -13.5t86 -23.5q16 -14 17 -135q0 -94 -5.5 -112.5t-29.5 -18.5q-12 0 -76 13.5t-78 19.5 q-31 12 -31 45q0 23 -2 85t-2 87z" />
<glyph unicode="&#xe5;" horiz-adv-x="909" d="M43 279q0 223 151.5 410.5t299.5 187.5q33 0 56 -11.5t35.5 -34t17.5 -36t9 -35.5l125 37q20 8 37 8q25 0 25 -27l-4 -67q0 -10 -3.5 -59.5t-3.5 -71.5q0 -145 16.5 -292t37.5 -163q4 -2 21.5 -6t19.5 -4q14 -4 14 -21q0 -27 -104.5 -85t-139.5 -58q-10 0 -16 2 t-16.5 18.5t-16.5 46.5q-18 90 -24 279q-18 -53 -35 -88t-54.5 -94.5t-96 -92t-130.5 -32.5q-102 0 -161.5 78t-59.5 211zM297 272q0 -145 70 -145q55 0 109 106.5t77 260.5q10 66 10 118q0 160 -106 160q-82 0 -117 -125q-43 -160 -43 -375zM277 1145q0 78 56 134t134 56 q80 0 136.5 -56t56.5 -134t-56.5 -134.5t-136.5 -56.5q-78 0 -134 56.5t-56 134.5zM354 1145q0 -47 33 -80t80 -33t80 33t33 80t-33 79.5t-80 32.5t-80 -32.5t-33 -79.5z" />
<glyph unicode="&#xe6;" horiz-adv-x="1290" d="M47 201q0 84 49 145.5t129 92t152 45t145 16.5q-6 125 -37 192q-16 33 -51 62.5t-76 29.5q-88 0 -147 -133q-16 -41 -23.5 -50t-25.5 -9q-39 0 -45 53q-16 109 -16.5 139.5t28.5 42.5q96 37 201 37q137 0 217 -54t112 -116q55 80 142.5 125t187.5 45q86 0 141.5 -36.5 t75.5 -84.5q25 -63 25 -198q0 -45 -6 -55.5t-43 -18.5l-414 -80q0 -63 3 -98t14.5 -84t41 -72.5t76.5 -23.5q98 0 238 143q63 63 80 63q14 0 27.5 -12t13.5 -26q0 -39 -91 -123q-100 -98 -181 -142.5t-189 -44.5q-111 0 -171.5 53.5t-76.5 129.5q-96 -178 -279 -179 q-63 0 -109 21.5t-67.5 48.5t-34 63.5t-14.5 55.5t-2 37zM313 231q0 -117 74 -116q57 0 100 71.5t43 104.5l-2 133q-92 -12 -116 -25q-99 -49 -99 -168zM768 471l213 39l2 100q0 68 -14.5 105t-30.5 45t-41 8q-129 0 -129 -297z" />
<glyph unicode="&#xe7;" horiz-adv-x="757" d="M66 322q0 238 147 391t326 153q53 0 116.5 -17.5t63.5 -55.5q0 -37 -28.5 -133.5t-72.5 -96.5q-23 0 -29.5 14.5t-15.5 65.5q-8 39 -16 63.5t-32.5 46t-63.5 21.5q-68 0 -101.5 -83t-33.5 -285q0 -154 24.5 -224.5t98.5 -70.5q63 0 108 36.5t119 124.5q27 27 43 27 q14 0 26.5 -12.5t12.5 -26.5q0 -20 -37 -73.5t-114 -116t-161 -86.5q-55 -61 -55 -74q0 -25 72 -57q66 -25 65 -66q0 -45 -61 -88q-127 -90 -197 -123l-39 45q6 4 53.5 35t55.5 37q33 23 33 43q0 14 -51 41q-68 25 -68 61q0 18 35 58q20 25 71 75h-4q-145 0 -217.5 96.5 t-72.5 254.5z" />
<glyph unicode="&#xe8;" horiz-adv-x="796" d="M43 305q0 135 47 248t122 181.5t160 105.5t165 37q205 0 204 -254q0 -31 -10 -44.5t-65 -50.5q-12 -8 -65.5 -42.5t-100.5 -65.5t-62 -41q-106 -72 -139 -86q0 -31 1 -47.5t6 -47t17.5 -47t36 -29.5t58.5 -13q115 0 274 172q39 41 51 41q20 0 31.5 -13.5t11.5 -29.5 q0 -20 -67 -95q-109 -113 -193 -162t-188 -49q-147 0 -227 99q-68 83 -68 233zM299 379l58 39q46 31 87 57.5t45 28.5q1 52 2 92q0 20 -1 38q-1 52 -7 85t-20 46t-41 13q-68 0 -96 -104q-17 -64 -27 -295zM176 1196q-6 37 48 92t79 55q14 0 22.5 -13t39.5 -85 q29 -68 139 -229q14 -25 14 -33q0 -10 -9 -20.5t-24 -10.5q-18 0 -123 68q-174 108 -186 176z" />
<glyph unicode="&#xe9;" horiz-adv-x="796" d="M43 305q0 135 47 248t122 181.5t160 105.5t165 37q205 0 204 -254q0 -31 -10 -44.5t-65 -50.5q-12 -8 -65.5 -42.5t-100.5 -65.5t-62 -41q-106 -72 -139 -86q0 -31 1 -47.5t6 -47t17.5 -47t36 -29.5t58.5 -13q115 0 274 172q39 41 51 41q20 0 31.5 -13.5t11.5 -29.5 q0 -20 -67 -95q-109 -113 -193 -162t-188 -49q-147 0 -227 99q-68 83 -68 233zM299 379l58 39q46 31 87 57.5t45 28.5q1 52 2 92q0 20 -1 38q-1 52 -7 85t-20 46t-41 13q-68 0 -96 -104q-17 -64 -27 -295zM274 985q0 10 17 33q74 102 102.5 154.5t59.5 132.5q12 41 36.5 41 t75.5 -51.5t51 -96.5t-138 -144.5t-171 -99.5t-33 31z" />
<glyph unicode="&#xea;" horiz-adv-x="796" d="M43 305q0 135 47 248t122 181.5t160 105.5t165 37q205 0 204 -254q0 -31 -10 -44.5t-65 -50.5q-12 -8 -65.5 -42.5t-100.5 -65.5t-62 -41q-106 -72 -139 -86q0 -31 1 -47.5t6 -47t17.5 -47t36 -29.5t58.5 -13q115 0 274 172q39 41 51 41q20 0 31.5 -13.5t11.5 -29.5 q0 -20 -67 -95q-109 -113 -193 -162t-188 -49q-147 0 -227 99q-68 83 -68 233zM299 379l58 39q46 31 87 57.5t45 28.5q1 52 2 92q0 20 -1 38q-1 52 -7 85t-20 46t-41 13q-68 0 -96 -104q-17 -64 -27 -295zM119 1030l299 301l289 -272l-109 -103l-209 199l-194 -199z" />
<glyph unicode="&#xeb;" horiz-adv-x="796" d="M43 305q0 135 47 248t122 181.5t160 105.5t165 37q205 0 204 -254q0 -31 -10 -44.5t-65 -50.5q-12 -8 -65.5 -42.5t-100.5 -65.5t-62 -41q-106 -72 -139 -86q0 -31 1 -47.5t6 -47t17.5 -47t36 -29.5t58.5 -13q115 0 274 172q39 41 51 41q20 0 31.5 -13.5t11.5 -29.5 q0 -20 -67 -95q-109 -113 -193 -162t-188 -49q-147 0 -227 99q-68 83 -68 233zM299 379l58 39q46 31 87 57.5t45 28.5q1 52 2 92q0 20 -1 38q-1 52 -7 85t-20 46t-41 13q-68 0 -96 -104q-17 -64 -27 -295zM135 1190q0 63 4 76.5t23 13.5q8 0 84 -12.5t84 -18.5 q20 -12 23 -32.5t3 -114.5q0 -86 -5 -103.5t-29 -17.5q-18 0 -88 14.5t-85 26.5q-14 14 -14 168zM440 1229q0 18 1 27.5t8.5 17.5t23.5 8q14 0 88 -13.5t86 -23.5q16 -14 17 -135q0 -94 -5.5 -112.5t-29.5 -18.5q-12 0 -76 13.5t-78 19.5q-31 12 -31 45q0 23 -2 85t-2 87z " />
<glyph unicode="&#xec;" d="M66 836q0 31 38 30q98 0 209 -49q31 -14 37 -22.5t4 -30.5q-14 -307 -14 -565q0 -14 3 -88t3 -86q0 -49 -31 -50q-37 0 -176 45q-39 12 -39 35q0 6 4.5 75t4.5 79q2 25 2 119q0 186 -4.5 283.5t-9.5 125t-15 54.5q-16 37 -16 45zM65 1196q-6 37 48 92t79 55 q14 0 22.5 -13t39.5 -85q29 -68 139 -229q14 -25 14 -33q0 -10 -9 -20.5t-24 -10.5q-18 0 -123 68q-174 108 -186 176z" />
<glyph unicode="&#xed;" d="M66 836q0 31 38 30q98 0 209 -49q31 -14 37 -22.5t4 -30.5q-14 -307 -14 -565q0 -14 3 -88t3 -86q0 -49 -31 -50q-37 0 -176 45q-39 12 -39 35q0 6 4.5 75t4.5 79q2 25 2 119q0 186 -4.5 283.5t-9.5 125t-15 54.5q-16 37 -16 45zM102 985q0 10 17 33q74 102 102.5 154.5 t59.5 132.5q12 41 36.5 41t75.5 -51.5t51 -96.5t-138 -144.5t-171 -99.5t-33 31z" />
<glyph unicode="&#xee;" d="M66 836q0 31 38 30q98 0 209 -49q31 -14 37 -22.5t4 -30.5q-14 -307 -14 -565q0 -14 3 -88t3 -86q0 -49 -31 -50q-37 0 -176 45q-39 12 -39 35q0 6 4.5 75t4.5 79q2 25 2 119q0 186 -4.5 283.5t-9.5 125t-15 54.5q-16 37 -16 45zM66 1030l299 301l289 -272l-109 -103 l-209 199l-194 -199z" />
<glyph unicode="&#xef;" d="M66 836q0 31 38 30q98 0 209 -49q31 -14 37 -22.5t4 -30.5q-14 -307 -14 -565q0 -14 3 -88t3 -86q0 -49 -31 -50q-37 0 -176 45q-39 12 -39 35q0 6 4.5 75t4.5 79q2 25 2 119q0 186 -4.5 283.5t-9.5 125t-15 54.5q-16 37 -16 45zM65 1190q0 63 4 76.5t23 13.5 q8 0 84 -12.5t84 -18.5q20 -12 23 -32.5t3 -114.5q0 -86 -5 -103.5t-29 -17.5q-18 0 -88 14.5t-85 26.5q-14 14 -14 168zM370 1229q0 18 1 27.5t8.5 17.5t23.5 8q14 0 88 -13.5t86 -23.5q16 -14 17 -135q0 -94 -5.5 -112.5t-29.5 -18.5q-12 0 -76 13.5t-78 19.5 q-31 12 -31 45q0 23 -2 85t-2 87z" />
<glyph unicode="&#xf0;" horiz-adv-x="872" d="M45 276q0 188 140.5 321.5t303.5 133.5q141 0 205 -78q-14 90 -63 186.5t-113 164.5l-182 -162q-20 -20 -29 -21q-14 0 -14 31q0 14 22 43l150 168q-154 131 -279 158q-35 8 -34 36q0 33 29.5 50.5t57 21.5t33.5 0q78 0 163 -48t132 -105l62 69q80 92 96 92q29 0 29 -67 q0 -43 -15 -64q-2 -4 -24.5 -25.5t-24.5 -25.5l-61 -55q199 -238 198 -615q0 -264 -157 -393q-145 -119 -336 -119q-125 0 -207 75.5t-82 227.5zM260 377q0 -66 16.5 -129.5t62.5 -115.5t114 -52q66 0 109.5 64.5t43.5 201.5q0 104 -43 192.5t-125 88.5q-25 0 -50.5 -9.5 t-57 -32t-51 -76.5t-19.5 -132z" />
<glyph unicode="&#xf1;" horiz-adv-x="909" d="M68 842q0 29 36 28q31 0 117 -17t109 -34q23 -14 22 -49q0 -6 -6 -76.5t-13 -153.5t-9 -104q57 182 149 314q82 117 189 116q78 0 98 -51t26 -194q14 -272 29.5 -378t42.5 -108q45 -6 45 -26q0 -23 -37 -50q-168 -100 -209 -100q-37 0 -48 37t-25 194q-6 70 -11 113 q0 2 -5 62.5t-11 128t-12 94.5q-4 33 -29 33q-45 0 -86 -101.5t-63 -191.5q-12 -45 -22.5 -117t-15.5 -120t-5 -56q0 -35 -33 -35q-66 0 -176 37q-29 10 -29 33q0 6 9 103t9 114q0 2 3.5 105.5t3.5 174.5q0 135 -21 203q0 6 -11 36t-11 36zM151 1047q0 33 60.5 126t134.5 93 q45 0 147 -60q90 -51 117 -51q53 0 78 59q16 37 26.5 45.5t24.5 8.5q18 0 29.5 -14.5t7.5 -30.5q-37 -111 -94 -168q-43 -43 -97 -43q-51 0 -147 57q-88 51 -119 51q-43 0 -72 -51q-29 -45 -37 -52t-24 -7q-12 0 -23.5 10.5t-11.5 26.5z" />
<glyph unicode="&#xf2;" horiz-adv-x="872" d="M45 371q0 203 120 347t316 144q168 0 257 -115.5t89 -291.5q0 -193 -114.5 -337.5t-315.5 -144.5q-98 0 -169.5 37t-109.5 98.5t-55.5 127t-17.5 135.5zM311 344q0 -61 3 -100t13.5 -90.5t37 -78t67.5 -26.5q68 0 98.5 82t30.5 313q0 195 -27.5 268.5t-93.5 73.5 q-80 0 -104.5 -97t-24.5 -345zM213 1196q-6 37 48 92t79 55q14 0 22.5 -13t39.5 -85q29 -68 139 -229q14 -25 14 -33q0 -10 -9 -20.5t-24 -10.5q-18 0 -123 68q-174 108 -186 176z" />
<glyph unicode="&#xf3;" horiz-adv-x="872" d="M45 371q0 203 120 347t316 144q168 0 257 -115.5t89 -291.5q0 -193 -114.5 -337.5t-315.5 -144.5q-98 0 -169.5 37t-109.5 98.5t-55.5 127t-17.5 135.5zM311 344q0 -61 3 -100t13.5 -90.5t37 -78t67.5 -26.5q68 0 98.5 82t30.5 313q0 195 -27.5 268.5t-93.5 73.5 q-80 0 -104.5 -97t-24.5 -345zM311 985q0 10 17 33q74 102 102.5 154.5t59.5 132.5q12 41 36.5 41t75.5 -51.5t51 -96.5t-138 -144.5t-171 -99.5t-33 31z" />
<glyph unicode="&#xf4;" horiz-adv-x="872" d="M45 371q0 203 120 347t316 144q168 0 257 -115.5t89 -291.5q0 -193 -114.5 -337.5t-315.5 -144.5q-98 0 -169.5 37t-109.5 98.5t-55.5 127t-17.5 135.5zM311 344q0 -61 3 -100t13.5 -90.5t37 -78t67.5 -26.5q68 0 98.5 82t30.5 313q0 195 -27.5 268.5t-93.5 73.5 q-80 0 -104.5 -97t-24.5 -345zM156 1030l299 301l289 -272l-109 -103l-209 199l-194 -199z" />
<glyph unicode="&#xf5;" horiz-adv-x="872" d="M45 371q0 203 120 347t316 144q168 0 257 -115.5t89 -291.5q0 -193 -114.5 -337.5t-315.5 -144.5q-98 0 -169.5 37t-109.5 98.5t-55.5 127t-17.5 135.5zM311 344q0 -61 3 -100t13.5 -90.5t37 -78t67.5 -26.5q68 0 98.5 82t30.5 313q0 195 -27.5 268.5t-93.5 73.5 q-80 0 -104.5 -97t-24.5 -345zM133 1047q0 33 60.5 126t134.5 93q45 0 147 -60q90 -51 117 -51q53 0 78 59q16 37 26.5 45.5t24.5 8.5q18 0 29.5 -14.5t7.5 -30.5q-37 -111 -94 -168q-43 -43 -97 -43q-51 0 -147 57q-88 51 -119 51q-43 0 -72 -51q-29 -45 -37 -52t-24 -7 q-12 0 -23.5 10.5t-11.5 26.5z" />
<glyph unicode="&#xf6;" horiz-adv-x="872" d="M45 371q0 203 120 347t316 144q168 0 257 -115.5t89 -291.5q0 -193 -114.5 -337.5t-315.5 -144.5q-98 0 -169.5 37t-109.5 98.5t-55.5 127t-17.5 135.5zM311 344q0 -61 3 -100t13.5 -90.5t37 -78t67.5 -26.5q68 0 98.5 82t30.5 313q0 195 -27.5 268.5t-93.5 73.5 q-80 0 -104.5 -97t-24.5 -345zM172 1190q0 63 4 76.5t23 13.5q8 0 84 -12.5t84 -18.5q20 -12 23 -32.5t3 -114.5q0 -86 -5 -103.5t-29 -17.5q-18 0 -88 14.5t-85 26.5q-14 14 -14 168zM477 1229q0 18 1 27.5t8.5 17.5t23.5 8q14 0 88 -13.5t86 -23.5q16 -14 17 -135 q0 -94 -5.5 -112.5t-29.5 -18.5q-12 0 -76 13.5t-78 19.5q-31 12 -31 45q0 23 -2 85t-2 87z" />
<glyph unicode="&#xf7;" horiz-adv-x="1228" d="M96 420v196h1037v-196h-1037zM455 94.5q0 65.5 47 112.5t112.5 47t112.5 -47t47 -112.5t-47 -113t-112.5 -47.5t-112.5 47.5t-47 113zM455 942.5q0 65.5 47 112.5t112.5 47t112.5 -47t47 -112.5t-47 -113t-112.5 -47.5t-112.5 47.5t-47 113z" />
<glyph unicode="&#xf8;" horiz-adv-x="872" d="M45 371q0 203 120 347t316 144q80 0 144 -28l51 88q14 25 31 24q14 0 27.5 -9t13.5 -19q0 -14 -11 -31l-53 -88q143 -106 143 -344q0 -193 -114.5 -337.5t-315.5 -144.5q-96 0 -166 37l-55 -98q-16 -29 -31 -29q-37 0 -36 29q0 12 12 33l57 100q-133 103 -133 326z M311 344q0 -39 2 -61l228 401q-25 102 -101 102q-80 0 -104.5 -97t-24.5 -345zM326 174q18 -125 106 -125q68 0 98.5 82t30.5 313q0 82 -6 131z" />
<glyph unicode="&#xf9;" horiz-adv-x="909" d="M78 215q0 51 20 291q8 86 8 182q0 57 -10 103l-12 51q0 25 39 24q25 0 90.5 -13t116.5 -36q29 -12 28 -39l-16 -131q-37 -309 -37 -379q0 -86 62 -86q66 0 133 145.5t67 295.5q0 12 -2 78.5t-2 76.5q0 29 17 37q61 31 168 31q25 0 35 -1t17 -6t7 -18q0 -16 -8 -49 q-8 -70 -8 -197q0 -133 15 -278t38 -160q4 -2 24 -6l23 -6q14 -6 14 -21q0 -37 -213 -143q-16 -6 -24 -6q-41 0 -52 59q-16 80 -26 336q-61 -168 -158 -270q-78 -84 -174 -84q-98 0 -139 64.5t-41 154.5zM231 1196q-6 37 48 92t79 55q14 0 22.5 -13t39.5 -85 q29 -68 139 -229q14 -25 14 -33q0 -10 -9 -20.5t-24 -10.5q-18 0 -123 68q-174 108 -186 176z" />
<glyph unicode="&#xfa;" horiz-adv-x="909" d="M78 215q0 51 20 291q8 86 8 182q0 57 -10 103l-12 51q0 25 39 24q25 0 90.5 -13t116.5 -36q29 -12 28 -39l-16 -131q-37 -309 -37 -379q0 -86 62 -86q66 0 133 145.5t67 295.5q0 12 -2 78.5t-2 76.5q0 29 17 37q61 31 168 31q25 0 35 -1t17 -6t7 -18q0 -16 -8 -49 q-8 -70 -8 -197q0 -133 15 -278t38 -160q4 -2 24 -6l23 -6q14 -6 14 -21q0 -37 -213 -143q-16 -6 -24 -6q-41 0 -52 59q-16 80 -26 336q-61 -168 -158 -270q-78 -84 -174 -84q-98 0 -139 64.5t-41 154.5zM329 985q0 10 17 33q74 102 102.5 154.5t59.5 132.5q12 41 36.5 41 t75.5 -51.5t51 -96.5t-138 -144.5t-171 -99.5t-33 31z" />
<glyph unicode="&#xfb;" horiz-adv-x="909" d="M78 215q0 51 20 291q8 86 8 182q0 57 -10 103l-12 51q0 25 39 24q25 0 90.5 -13t116.5 -36q29 -12 28 -39l-16 -131q-37 -309 -37 -379q0 -86 62 -86q66 0 133 145.5t67 295.5q0 12 -2 78.5t-2 76.5q0 29 17 37q61 31 168 31q25 0 35 -1t17 -6t7 -18q0 -16 -8 -49 q-8 -70 -8 -197q0 -133 15 -278t38 -160q4 -2 24 -6l23 -6q14 -6 14 -21q0 -37 -213 -143q-16 -6 -24 -6q-41 0 -52 59q-16 80 -26 336q-61 -168 -158 -270q-78 -84 -174 -84q-98 0 -139 64.5t-41 154.5zM174 1030l299 301l289 -272l-109 -103l-209 199l-194 -199z" />
<glyph unicode="&#xfc;" horiz-adv-x="909" d="M78 215q0 51 20 291q8 86 8 182q0 57 -10 103l-12 51q0 25 39 24q25 0 90.5 -13t116.5 -36q29 -12 28 -39l-16 -131q-37 -309 -37 -379q0 -86 62 -86q66 0 133 145.5t67 295.5q0 12 -2 78.5t-2 76.5q0 29 17 37q61 31 168 31q25 0 35 -1t17 -6t7 -18q0 -16 -8 -49 q-8 -70 -8 -197q0 -133 15 -278t38 -160q4 -2 24 -6l23 -6q14 -6 14 -21q0 -37 -213 -143q-16 -6 -24 -6q-41 0 -52 59q-16 80 -26 336q-61 -168 -158 -270q-78 -84 -174 -84q-98 0 -139 64.5t-41 154.5zM190 1190q0 63 4 76.5t23 13.5q8 0 84 -12.5t84 -18.5 q20 -12 23 -32.5t3 -114.5q0 -86 -5 -103.5t-29 -17.5q-18 0 -88 14.5t-85 26.5q-14 14 -14 168zM495 1229q0 18 1 27.5t8.5 17.5t23.5 8q14 0 88 -13.5t86 -23.5q16 -14 17 -135q0 -94 -5.5 -112.5t-29.5 -18.5q-12 0 -76 13.5t-78 19.5q-31 12 -31 45q0 23 -2 85t-2 87z " />
<glyph unicode="&#xfd;" horiz-adv-x="757" d="M-14 817q0 29 69 29q66 0 152 -22.5t98 -49.5q6 -10 14.5 -42t16.5 -68.5t10 -40.5q66 -242 113 -375q41 96 60.5 143t35.5 120t16 144q0 63 -14 121q-16 68 -16 78q0 16 8 25.5t13 10.5t9 1q27 0 91 -51q43 -33 62 -53.5t23.5 -28.5t4.5 -19q0 -8 -15.5 -59t-79 -196.5 t-157.5 -323.5q-90 -168 -119 -236.5t-29 -134.5q0 -78 43 -154q16 -33 17 -43q0 -43 -33 -43q-41 0 -123 60q-45 31 -59.5 51.5t-14.5 50.5q0 57 119 254q-14 41 -166 502l-59 182q-35 102 -53 119q-37 33 -37 49zM254 985q0 10 17 33q74 102 102.5 154.5t59.5 132.5 q12 41 36.5 41t75.5 -51.5t51 -96.5t-138 -144.5t-171 -99.5t-33 31z" />
<glyph unicode="&#xfe;" horiz-adv-x="909" d="M84 1303q0 27 33 26q31 0 102.5 -18.5t99.5 -30.5q39 -16 39 -47q0 -12 -17 -290.5t-19 -377.5q23 43 31.5 62.5t45.5 74t69 84t83 56t106 26.5q57 0 100.5 -27.5t63 -62.5t30.5 -86t12 -74.5t1 -52.5q0 -289 -184 -473q-119 -121 -231 -121q-39 0 -59.5 12.5t-24 23.5 t-3.5 28q0 37 14.5 97.5t39.5 60.5q12 0 35 -33q6 -8 10 -15q35 -55 69 -55q86 0 86 373q0 143 -13 200.5t-52 57.5q-41 0 -89 -64.5t-79 -144.5q-61 -158 -61 -506q0 -57 6 -220t6 -179v-25q0 -33 -31 -33q-6 0 -41 7.5t-83 20.5t-73 26q-20 10 -20 39q0 14 3 92t3 90 q8 270 8 549q0 10 5.5 285.5t5.5 338.5q0 193 -13 246q0 2 -7 28t-7 32z" />
<glyph unicode="&#xff;" horiz-adv-x="757" d="M-14 817q0 29 69 29q66 0 152 -22.5t98 -49.5q6 -10 14.5 -42t16.5 -68.5t10 -40.5q66 -242 113 -375q41 96 60.5 143t35.5 120t16 144q0 63 -14 121q-16 68 -16 78q0 16 8 25.5t13 10.5t9 1q27 0 91 -51q43 -33 62 -53.5t23.5 -28.5t4.5 -19q0 -8 -15.5 -59t-79 -196.5 t-157.5 -323.5q-90 -168 -119 -236.5t-29 -134.5q0 -78 43 -154q16 -33 17 -43q0 -43 -33 -43q-41 0 -123 60q-45 31 -59.5 51.5t-14.5 50.5q0 57 119 254q-14 41 -166 502l-59 182q-35 102 -53 119q-37 33 -37 49zM115 1190q0 63 4 76.5t23 13.5q8 0 84 -12.5t84 -18.5 q20 -12 23 -32.5t3 -114.5q0 -86 -5 -103.5t-29 -17.5q-18 0 -88 14.5t-85 26.5q-14 14 -14 168zM420 1229q0 18 1 27.5t8.5 17.5t23.5 8q14 0 88 -13.5t86 -23.5q16 -14 17 -135q0 -94 -5.5 -112.5t-29.5 -18.5q-12 0 -76 13.5t-78 19.5q-31 12 -31 45q0 23 -2 85t-2 87z " />
<glyph unicode="&#x131;" d="M66 836q0 31 38 30q98 0 209 -49q31 -14 37 -22.5t4 -30.5q-14 -307 -14 -565q0 -14 3 -88t3 -86q0 -49 -31 -50q-37 0 -176 45q-39 12 -39 35q0 6 4.5 75t4.5 79q2 25 2 119q0 186 -4.5 283.5t-9.5 125t-15 54.5q-16 37 -16 45z" />
<glyph unicode="&#x152;" horiz-adv-x="2390" d="M74 453q0 111 35.5 216t94 185t115 135t115.5 98q96 68 220 119t199 69.5t99 18.5q20 0 32.5 -11t12.5 -26q0 -20 -7 -26t-34 -12q-66 -16 -104.5 -29.5t-99 -41.5t-112.5 -72t-97 -107q-135 -190 -135 -430q0 -123 35.5 -213t94 -134.5t116 -63.5t118.5 -19 q80 0 169 31.5t146 109.5q125 168 125 455q0 27 -1 47t-7 66t-22.5 80t-42 70t-69.5 55t-103 19q-139 0 -273 -129q-43 -43 -51 -43q-14 0 -27.5 16.5t-13.5 28.5q0 10 22.5 39t68.5 66t105.5 70.5t144.5 57t175 23.5q72 0 137.5 -16t130 -67.5t87.5 -131.5q190 236 495 236 q72 0 132.5 -13.5t87 -26.5t34.5 -24q20 -23 33.5 -84t13.5 -96q0 -31 -28 -30q-14 0 -54 32q-143 129 -307 129q-96 0 -163.5 -44t-125.5 -136q-100 -166 -100 -369q0 -172 86 -280q78 -102 250 -103q70 0 167 21.5t152 44.5l160 61h6l4 2q35 0 35 -49q0 -27 -17.5 -43 t-80.5 -45q-53 -27 -131 -57.5t-228.5 -70.5t-265.5 -40q-55 0 -98 7.5t-100.5 29t-103.5 74.5t-75 133q-61 -45 -107 -73.5t-134 -73.5t-192.5 -69t-215.5 -24q-240 0 -384 114t-144 364zM1540 569q0 20 18.5 26.5t69.5 10.5q143 8 211 16.5t203 36.5q8 2 40 10.5 t60.5 15.5t32.5 7q12 0 20.5 -9t2.5 -21q-33 -88 -76 -136q-12 -12 -30.5 -16t-88.5 -4q-59 0 -211 8t-211 21q-41 11 -41 34z" />
<glyph unicode="&#x153;" horiz-adv-x="1290" d="M43 371q0 203 120 350t302 147q16 0 38.5 -3t67.5 -13t86 -41t64 -76q119 131 291 131q63 0 107 -18.5t66.5 -42t34 -65.5t13.5 -69.5t2 -72.5q0 -43 -4 -63q-2 -6 -33 -21l-405 -184q2 -51 4 -79t13 -66t36.5 -55t68.5 -17q51 0 115 38.5t94.5 67.5t44.5 47q43 53 70 53 q39 0 39 -40q0 -18 -53.5 -76t-91.5 -92q-145 -135 -285 -136q-127 0 -199 97q-35 -31 -59.5 -48.5t-73.5 -34t-108 -16.5q-166 0 -265.5 106t-99.5 292zM311 399q0 -61 1 -92t4 -80t10.5 -73.5t20.5 -51t34.5 -38t50.5 -11.5q43 0 69.5 28t43 115t16.5 242 q0 199 -29.5 274.5t-91.5 75.5q-74 0 -102 -83q-27 -79 -27 -306zM793 416l196 88q0 158 -6 201q-6 33 -24.5 49t-40.5 16q-37 0 -68 -35q-43 -49 -49 -172q-4 -12 -6 -78.5t-2 -68.5z" />
<glyph unicode="&#x178;" horiz-adv-x="1593" d="M-35 1153q0 25 25.5 31t91.5 6q111 0 255 -24.5t168.5 -51.5t184.5 -364q2 -2 207 -488q4 6 36 47t59.5 76t35.5 47q262 391 262 658q0 51 -18 100q-18 55 -19 57q0 25 29 25q45 0 158.5 -99.5t113.5 -162.5q0 -76 -223 -379q-139 -193 -481 -576q-178 -205 -178 -219 q0 -20 47 -20q240 0 522 49q111 25 127 24q29 0 29 -24.5t-11.5 -38.5t-21.5 -18.5t-33 -10.5q-195 -53 -518.5 -125.5t-411.5 -72.5q-41 0 -59 30q-6 12 -23.5 50t-17.5 49q0 23 39 43q184 98 313 235q-66 188 -261 576.5t-259 455.5q-35 35 -123 72q-45 20 -45 43z M543 1559q0 63 4 76.5t23 13.5q8 0 84 -12.5t84 -18.5q20 -12 23 -32.5t3 -114.5q0 -86 -5 -103.5t-29 -17.5q-18 0 -88 14.5t-85 26.5q-14 14 -14 168zM848 1598q0 18 1 27.5t8.5 17.5t23.5 8q14 0 88 -13.5t86 -23.5q16 -14 17 -135q0 -94 -5.5 -112.5t-29.5 -18.5 q-12 0 -76 13.5t-78 19.5q-31 12 -31 45q0 23 -2 85t-2 87z" />
<glyph unicode="&#x2c6;" d="M-53 1030l299 301l289 -272l-109 -103l-209 199l-194 -199z" />
<glyph unicode="&#x2da;" d="M29 1145q0 78 56 134t134 56q80 0 136.5 -56t56.5 -134t-56.5 -134.5t-136.5 -56.5q-78 0 -134 56.5t-56 134.5zM106 1145q0 -47 33 -80t80 -33t80 33t33 80t-33 79.5t-80 32.5t-80 -32.5t-33 -79.5z" />
<glyph unicode="&#x2dc;" d="M-76 1047q0 33 60.5 126t134.5 93q45 0 147 -60q90 -51 117 -51q53 0 78 59q16 37 26.5 45.5t24.5 8.5q18 0 29.5 -14.5t7.5 -30.5q-37 -111 -94 -168q-43 -43 -97 -43q-51 0 -147 57q-88 51 -119 51q-43 0 -72 -51q-29 -45 -37 -52t-24 -7q-12 0 -23.5 10.5t-11.5 26.5z " />
<glyph unicode="&#x2000;" horiz-adv-x="856" />
<glyph unicode="&#x2001;" horiz-adv-x="1714" />
<glyph unicode="&#x2002;" horiz-adv-x="856" />
<glyph unicode="&#x2003;" horiz-adv-x="1714" />
<glyph unicode="&#x2004;" horiz-adv-x="571" />
<glyph unicode="&#x2005;" horiz-adv-x="428" />
<glyph unicode="&#x2006;" horiz-adv-x="284" />
<glyph unicode="&#x2007;" horiz-adv-x="284" />
<glyph unicode="&#x2008;" horiz-adv-x="212" />
<glyph unicode="&#x2009;" horiz-adv-x="342" />
<glyph unicode="&#x200a;" horiz-adv-x="94" />
<glyph unicode="&#x2010;" horiz-adv-x="833" d="M66 547q0 18 16 18q31 0 61 -6q178 -18 475 -18h87q10 -4 34 -66q23 -57 23 -63q0 -20 -29 -21q-61 -4 -225 -4q-350 0 -379 16q-10 6 -36.5 69t-26.5 75z" />
<glyph unicode="&#x2011;" horiz-adv-x="833" d="M66 547q0 18 16 18q31 0 61 -6q178 -18 475 -18h87q10 -4 34 -66q23 -57 23 -63q0 -20 -29 -21q-61 -4 -225 -4q-350 0 -379 16q-10 6 -36.5 69t-26.5 75z" />
<glyph unicode="&#x2012;" horiz-adv-x="833" d="M66 547q0 18 16 18q31 0 61 -6q178 -18 475 -18h87q10 -4 34 -66q23 -57 23 -63q0 -20 -29 -21q-61 -4 -225 -4q-350 0 -379 16q-10 6 -36.5 69t-26.5 75z" />
<glyph unicode="&#x2013;" horiz-adv-x="1024" d="M-6 397v138h1036v-138h-1036z" />
<glyph unicode="&#x2014;" horiz-adv-x="2048" d="M233 537h1516l66 -138h-1516z" />
<glyph unicode="&#x2018;" horiz-adv-x="530" d="M80 801.5q-8 15.5 0 27.5q23 84 152.5 244t173.5 160q10 0 29.5 -11.5t19.5 -23.5q0 -6 -17.5 -45t-40 -84t-26.5 -55q-74 -182 -78 -314q-2 -31 -20.5 -30.5t-151.5 88.5q-20 16 -26.5 22t-14.5 21.5z" />
<glyph unicode="&#x2019;" horiz-adv-x="530" d="M104 711q0 4 12.5 28.5t12.5 26.5q14 27 40 82t60.5 161.5t34.5 182.5q0 41 23 41q25 0 108.5 -57.5t83.5 -81.5q0 -27 -46 -109t-111 -164q-53 -63 -102.5 -107t-65.5 -44q-12 0 -31 14.5t-19 26.5z" />
<glyph unicode="&#x201a;" horiz-adv-x="530" d="M39 -207q0 2 63 129q98 217 99 332q0 41 3 52t19 11q20 0 150 -86q37 -23 37 -53q0 -29 -54.5 -122t-132.5 -181q-106 -123 -137 -123q-12 0 -29.5 14.5t-17.5 26.5z" />
<glyph unicode="&#x201c;" horiz-adv-x="833" d="M80 807q0 20 28.5 78.5t73.5 118.5q47 63 123 146t101 83q10 0 27.5 -13.5t17.5 -25.5q0 -8 -16.5 -40t-35 -67.5t-22.5 -44.5q-78 -188 -86 -331q-6 -43 -27 -43q-18 0 -149 92q-35 22 -35 47zM399 809q0 66 140.5 245t183.5 179q12 0 29.5 -14.5t17.5 -26.5 q-55 -113 -63 -127q-98 -221 -99 -332q0 -41 -3 -52t-19 -11q-25 0 -150 84q-37 26 -37 55z" />
<glyph unicode="&#x201d;" horiz-adv-x="833" d="M72 707l14 30q14 29 29.5 60.5t17.5 38.5q100 225 100 331q0 41 3.5 52.5t19.5 11.5q14 0 94 -49q39 -25 52.5 -34t26.5 -24.5t13 -31.5q0 -68 -140 -246t-185 -178q-12 0 -28.5 14.5t-16.5 24.5zM389 705q0 10 36 77.5t40 75.5q74 182 84 330q4 45 26 45q18 0 154 -94 q31 -23 31 -45q0 -20 -27.5 -79t-73.5 -118q-49 -63 -124.5 -146t-100.5 -83q-10 0 -27.5 12.5t-17.5 24.5z" />
<glyph unicode="&#x201e;" horiz-adv-x="833" d="M33 -207q0 2 63 129q98 217 99 332q0 41 3 52t19 11q20 0 150 -86q37 -23 36 -53q0 -29 -54 -122t-132 -181q-109 -123 -137 -123q-12 0 -29.5 14.5t-17.5 26.5zM352 -209q0 8 16.5 40t35 67.5t22.5 44.5q76 186 86 331q0 43 27 43q12 0 70.5 -37.5t80.5 -56.5 q31 -23 31 -45q0 -18 -27.5 -78.5t-72.5 -117.5q-47 -63 -123 -146.5t-101 -83.5q-10 0 -27.5 13.5t-17.5 25.5z" />
<glyph unicode="&#x2022;" horiz-adv-x="1024" d="M207 625q0 125 89 215t216 90t216 -90t89 -215t-89 -215.5t-216 -90.5t-216 90.5t-89 215.5z" />
<glyph unicode="&#x2026;" horiz-adv-x="2048" d="M213 203q0 68 6 85t27 17q18 0 107 -22.5t102 -32.5q12 -16 16 -37q2 -20 2 -111q0 -82 -5 -104.5t-30 -22.5q-4 0 -53 10.5t-104.5 28t-61.5 29.5q-6 17 -6 160zM895 203q0 68 6 85t27 17q18 0 107 -22.5t102 -32.5q12 -14 16 -37q2 -20 2 -111q0 -82 -5 -104.5 t-30 -22.5q-4 0 -53 10.5t-104.5 28t-61.5 29.5q-6 17 -6 160zM1577 203q0 68 6 85t27 17q18 0 107 -22.5t102 -32.5q12 -14 16 -37q2 -20 2 -111q0 -82 -5 -104.5t-30 -22.5q-4 0 -53 10.5t-104.5 28t-61.5 29.5q-6 17 -6 160z" />
<glyph unicode="&#x202f;" horiz-adv-x="342" />
<glyph unicode="&#x2039;" horiz-adv-x="530" d="M49 430l324 342l86 -80l-248 -262l229 -262l-88 -80z" />
<glyph unicode="&#x203a;" horiz-adv-x="530" d="M74 692l84 80l323 -344l-301 -340l-92 80l234 260z" />
<glyph unicode="&#x205f;" horiz-adv-x="428" />
<glyph unicode="&#x2122;" horiz-adv-x="1591" d="M20 1059v153h580v-153h-49q-23 106 -102 106h-64v-495q0 -29 13.5 -39t66.5 -15v-47h-311v47q53 4 66 14.5t13 39.5v495h-61q-82 0 -104 -106h-48zM668 1165v47h231l221 -458l230 458h198v-47q-53 -2 -69.5 -19.5t-16.5 -58.5v-417q0 -29 13.5 -39t66.5 -15v-47h-303v47 q53 4 66.5 14.5t13.5 39.5v360h-4l-234 -461h-20l-223 461h-2v-303q0 -63 14 -84.5t68 -26.5v-47h-222v47q53 4 67.5 26t14.5 85v354q0 37 -35.5 60.5t-74.5 23.5z" />
<glyph unicode="&#xe000;" horiz-adv-x="860" d="M0 860h860v-860h-860v860z" />
<glyph unicode="&#xfb01;" horiz-adv-x="1024" d="M-16 811q0 29 32 29q10 0 61.5 -7.5t59.5 -7.5q0 20 -2 74.5t-2 75.5q0 119 117 234.5t297 115.5q57 0 72.5 -11t15.5 -38q0 -63 -14 -156q-6 -31 -14.5 -42t-31.5 -11q-18 0 -30.5 12.5t-30.5 50.5q-33 63 -42 76t-30 13q-18 0 -27 -13.5t-12.5 -31t-5.5 -54.5 q-14 -221 -16 -309q14 0 94 3t92 3q41 0 41 -35q0 -25 -35 -43q-80 -29 -192 -43q-2 -33 -11.5 -200.5t-9.5 -194.5q-16 -387 -16 -524q0 -127 -6 -147.5t-48 -39t-76 -26.5t-40 -8q-23 0 -22 26l2 49q2 51 4 107.5t2 73.5q2 66 2 299q0 358 -15 569q-82 2 -98 8 q-14 6 -39.5 51t-25.5 72zM637 836q0 31 39 30q27 0 105.5 -15t117.5 -40q29 -18 27 -47q-14 -324 -15 -549q0 -14 2 -96t2 -94q0 -49 -28 -50q-37 0 -176 45q-39 12 -39 35q0 6 4 75t4 79q2 25 2 119q0 186 -4 283.5t-9 125t-16 54.5q-16 37 -16 45zM690 1055q0 8 2 52 t2 52l-2 82q0 31 27 31q14 0 92 -22.5t100 -37.5q14 -10 15 -38l-2 -201q0 -23 -29 -23q-31 0 -154 41q-37 12 -44 21.5t-7 42.5z" />
<glyph unicode="&#xfb02;" horiz-adv-x="1024" d="M-18 811q0 29 30 29q8 0 35 -3t55.5 -8.5t32.5 -5.5q0 12 -2 70.5t-2 69.5q0 76 47 151q72 117 179.5 166t193.5 49q76 0 100 -29q10 29 35 29q16 0 95 -16.5t120 -32.5q35 -14 35 -47q0 -14 -4 -86t-4 -84q-20 -502 -21 -852q0 -96 4 -141q0 -10 2 -33t2 -25 q0 -39 -26 -39q-33 0 -197 62q-27 10 -26 37q0 78 10 272q0 23 4 144.5t6 237.5t2 183q0 231 -12 310q-18 -92 -30.5 -121t-39.5 -29q-20 0 -31.5 14.5t-31.5 61.5q-23 49 -38.5 67.5t-41.5 18.5q-53 0 -66 -117q-4 -51 -16 -305h59q10 0 63.5 5t61.5 5q39 0 39 -35 q0 -29 -33 -45q-68 -29 -190 -45q-2 -8 -11.5 -196.5t-19.5 -443.5t-10 -388q0 -49 -21 -61q-16 -10 -69 -30.5t-74 -20.5q-25 0 -24 34q0 90 4 127q4 182 4 361q0 260 -13 604q-88 -6 -110 14q-16 16 -35.5 55t-19.5 62z" />
<glyph unicode="&#xfb03;" horiz-adv-x="1593" d="M1205 836q0 31 38 30q27 0 106 -15t118 -40q27 -17 26 -43q0 -116 -7 -301t-7 -252q0 -14 2 -96t2 -94q0 -49 -29 -50q-37 0 -176 45q-39 12 -39 35q0 6 4.5 75t4.5 79q2 25 2 119q0 186 -4.5 283.5t-9.5 125t-15 54.5q-16 37 -16 45zM1235 1061v115q-2 33 -2 55 q0 28 3 41q5 23 34 22q20 0 88 -18.5t98 -32.5q23 -10 23 -57v-103q0 -6 1 -32.5t1 -43.5v-28q-2 -18 -27 -18q-27 0 -157 45q-41 14 -51.5 22t-10.5 33zM553 815q0 25 24 25q6 0 62.5 -7.5t66.5 -7.5q0 10 -2 59.5t-2 57.5q0 74 15.5 117t78.5 121q53 63 138.5 105 t185.5 42q88 0 116.5 -17.5t28.5 -52.5q0 -70 -24 -147q-12 -37 -47 -37q-33 0 -70 86q-37 78 -80 78q-57 0 -72 -98q-14 -92 -22 -328q16 -2 57 -2q102 10 129 10q39 0 39 -33q0 -20 -11 -31.5t-46 -23.5q-66 -25 -168 -35q-2 -51 -15.5 -306t-13.5 -296q-10 -342 -10 -430 q0 -47 -23 -59q-29 -16 -77.5 -32.5t-63.5 -16.5q-27 0 -26 30q0 12 3 69.5t3 68.5q4 221 4 413q0 291 -15 543q-19 -1 -35 -1q-41 0 -63 7q-16 6 -40.5 51t-24.5 78zM-16 815q0 25 24 25q6 0 62.5 -7.5t66.5 -7.5q0 10 -2 59.5t-2 57.5q0 74 15.5 117t78.5 121 q53 63 138.5 105t185.5 42q88 0 116.5 -17.5t28.5 -52.5q0 -70 -24 -147q-12 -37 -47 -37q-33 0 -70 86q-37 78 -80 78q-57 0 -72 -98q-14 -92 -22 -328q16 -2 57 -2q102 10 129 10q39 0 39 -33q0 -20 -11 -31.5t-46 -23.5q-66 -25 -168 -35q-2 -51 -15.5 -306t-13.5 -296 q-10 -342 -10 -430q0 -47 -23 -59q-29 -16 -77.5 -32.5t-63.5 -16.5q-27 0 -26 30q0 12 3 69.5t3 68.5q4 221 4 413q0 291 -15 543q-19 -1 -35 -1q-41 0 -63 7q-16 6 -40.5 51t-24.5 78z" />
<glyph unicode="&#xfb04;" horiz-adv-x="1593" d="M1221 1305q0 27 37 26q23 0 97.5 -15.5t123.5 -35.5q31 -12 31 -41q0 -220 -15.5 -581.5t-15.5 -501.5q0 -57 6 -129q2 -10 2 -19q0 -31 -26 -31q-53 0 -197 60q-29 10 -29 45q0 84 10 289q8 281 9 620q0 178 -13 234q0 6 -10 40t-10 40zM553 815q0 25 24 25 q6 0 62.5 -7.5t66.5 -7.5q0 10 -2 59.5t-2 57.5q0 74 15.5 117t78.5 121q53 63 138.5 105t185.5 42q88 0 116.5 -17.5t28.5 -52.5q0 -70 -24 -147q-12 -37 -47 -37q-33 0 -70 86q-37 78 -80 78q-57 0 -72 -98q-14 -92 -22 -328q16 -2 57 -2q102 10 129 10q39 0 39 -33 q0 -20 -11 -31.5t-46 -23.5q-66 -25 -168 -35q-2 -51 -15.5 -306t-13.5 -296q-10 -342 -10 -430q0 -47 -23 -59q-29 -16 -77.5 -32.5t-63.5 -16.5q-27 0 -26 30q0 12 3 69.5t3 68.5q4 221 4 413q0 291 -15 543q-19 -1 -35 -1q-41 0 -63 7q-16 6 -40.5 51t-24.5 78zM-16 815 q0 25 24 25q6 0 62.5 -7.5t66.5 -7.5q0 10 -2 59.5t-2 57.5q0 74 15.5 117t78.5 121q53 63 138.5 105t185.5 42q88 0 116.5 -17.5t28.5 -52.5q0 -70 -24 -147q-12 -37 -47 -37q-33 0 -70 86q-37 78 -80 78q-57 0 -72 -98q-14 -92 -22 -328q16 -2 57 -2q102 10 129 10 q39 0 39 -33q0 -20 -11 -31.5t-46 -23.5q-66 -25 -168 -35q-2 -51 -15.5 -306t-13.5 -296q-10 -342 -10 -430q0 -47 -23 -59q-29 -16 -77.5 -32.5t-63.5 -16.5q-27 0 -26 30q0 12 3 69.5t3 68.5q4 221 4 413q0 291 -15 543q-19 -1 -35 -1q-41 0 -63 7q-16 6 -40.5 51 t-24.5 78z" />
</font>
</defs>
</svg>
